<?xml version="1.0" encoding="utf-8"?>
<!-- Generator: Adobe Illustrator 24.3.0, SVG Export Plug-In . SVG Version: 6.00 Build 0)  -->
<svg version="1.1" id="Layer_1" xmlns="http://www.w3.org/2000/svg" xmlns:xlink="http://www.w3.org/1999/xlink" x="0px" y="0px"
	 viewBox="0 0 595.28 841.89" enable-background="new 0 0 595.28 841.89" xml:space="preserve">
<polygon fill="#FABF1F" points="287.89,666.94 337.08,380.6 218.9,386.62 298.6,42.96 422.69,36.64 372.19,254.33 482.71,248.7 "/>
<polygon fill="#FABF1F" points="327.1,714.07 437.17,559.95 387.54,531.11 527.99,351.79 580.11,382.07 491.13,495.66 
	537.54,522.63 "/>
<polygon fill="#FABF1F" points="260.56,707.77 167.67,517.7 128.91,562.75 24.61,327.38 65.3,280.08 131.37,429.18 167.62,387.05 
	"/>
<path fill="#FABF1F" d="M369.12,757.45v0.03c0,8.64-7.42,15.63-16.61,15.63h-46.22v35.24c0,4.31-1.88,8.23-4.87,11.07
	c-3.02,2.84-7.16,4.58-11.77,4.58c-9.18,0-16.64-7.01-16.64-15.66v-35.24H226.8c-9.18,0-16.61-6.99-16.61-15.63v-0.03
	c0-8.64,7.42-15.63,16.61-15.63h46.22v-35.24c0-4.34,1.88-8.23,4.87-11.07c3.02-2.82,7.16-4.58,11.77-4.58
	c9.18,0,16.64,7.02,16.64,15.66v35.24h46.22C361.69,741.82,369.12,748.8,369.12,757.45z"/>
</svg>
