<?xml version="1.0" encoding="utf-8"?>
<!-- Generator: Adobe Illustrator 24.3.0, SVG Export Plug-In . SVG Version: 6.00 Build 0)  -->
<svg version="1.1" id="Layer_1" xmlns="http://www.w3.org/2000/svg" xmlns:xlink="http://www.w3.org/1999/xlink" x="0px" y="0px"
	 viewBox="0 0 595.28 841.89" enable-background="new 0 0 595.28 841.89" xml:space="preserve">
<polygon fill="#FABF1F" points="228.38,793.13 347,454.24 184.48,454.24 355.09,48.76 525.74,48.76 417.65,305.61 569.63,305.61 "/>
<path fill="#FABF1F" d="M280.49,152.33v0.04c0,12.67-10.88,22.9-24.34,22.9h-67.72v51.63c0,6.31-2.75,12.06-7.14,16.23
	c-4.43,4.17-10.49,6.72-17.24,6.72c-13.46,0-24.38-10.28-24.38-22.94v-51.63H71.96c-13.46,0-24.34-10.24-24.34-22.9v-0.04
	c0-12.67,10.88-22.9,24.34-22.9h67.72V77.79c0-6.35,2.75-12.06,7.14-16.23c4.43-4.13,10.49-6.72,17.24-6.72
	c13.46,0,24.38,10.28,24.38,22.94v51.63h67.72C269.61,129.43,280.49,139.67,280.49,152.33z"/>
</svg>
