<?xml version="1.0" encoding="utf-8"?>
<!-- Generator: Adobe Illustrator 24.3.0, SVG Export Plug-In . SVG Version: 6.00 Build 0)  -->
<svg version="1.1" xmlns="http://www.w3.org/2000/svg" xmlns:xlink="http://www.w3.org/1999/xlink" x="0px" y="0px"
	 viewBox="0 0 1920 1920" enable-background="new 0 0 1920 1920" xml:space="preserve">
<g id="Layer_1">
	<g>
		<path d="M433.24,1390.31c-18.07,0-35.07-6.91-48.03-19.57c-13.37-13.05-20.73-30.53-20.73-49.22c0-21.04,9.44-40.64,25.9-53.78
			c5.9-4.71,9.28-11.61,9.28-18.93c0-13.2-10.74-23.94-23.94-23.94H168.38v-207.33c0-14.85,12.08-26.94,26.94-26.94
			c8.24,0,15.99,3.79,21.27,10.41c12.56,15.74,31.31,24.77,51.44,24.77c17.87,0,34.59-7.04,47.07-19.83
			c12.48-12.78,19.12-29.67,18.69-47.56c-0.86-35.96-30.87-64.79-66.85-64.17c-19.81,0.32-38.22,9.43-50.53,24.99
			c-5.12,6.47-12.8,10.18-21.09,10.18c-14.86,0-26.94-12.08-26.94-26.94V695.13h207.33c13.2,0,23.94-10.74,23.94-23.94
			c0-7.36-3.3-14.19-9.04-18.74c-16.27-12.87-25.8-32.13-26.13-52.84c-0.61-37.65,29.49-69,67.09-69.9
			c18.7-0.45,36.36,6.5,49.73,19.55c13.37,13.05,20.73,30.53,20.73,49.22c0,21.04-9.44,40.64-25.9,53.78
			c-5.9,4.71-9.28,11.61-9.28,18.93c0,13.2,10.74,23.94,23.94,23.94h207.33v207.33c0,14.85-12.08,26.94-26.94,26.94
			c-8.24,0-15.99-3.8-21.27-10.41c-12.57-15.74-31.31-24.77-51.44-24.77c-17.87,0-34.59,7.04-47.07,19.83
			c-12.48,12.78-19.12,29.67-18.69,47.56c0.85,35.6,30.25,64.17,65.78,64.17c0.36,0,0.71,0,1.07-0.01
			c19.81-0.32,38.22-9.43,50.53-24.99c5.12-6.47,12.8-10.18,21.09-10.18c14.86,0,26.94,12.08,26.94,26.94v207.33H490.79
			c-13.2,0-23.94,10.74-23.94,23.94c0,7.37,3.3,14.19,9.04,18.74c16.27,12.87,25.8,32.13,26.13,52.84
			c0.61,37.64-29.49,69-67.09,69.9C434.37,1390.3,433.8,1390.31,433.24,1390.31z M171.38,1221.87h204.33
			c14.85,0,26.94,12.08,26.94,26.94c0,8.24-3.8,15.99-10.41,21.27c-15.74,12.57-24.77,31.31-24.77,51.44
			c0,17.87,7.04,34.59,19.83,47.07c12.78,12.48,29.69,19.14,47.56,18.69c35.96-0.86,64.75-30.85,64.17-66.85
			c-0.32-19.81-9.43-38.22-24.99-50.53c-6.47-5.12-10.18-12.8-10.18-21.09c0-14.86,12.08-26.94,26.94-26.94h204.33v-204.33
			c0-13.2-10.74-23.94-23.94-23.94c-7.36,0-14.19,3.3-18.74,9.04c-12.87,16.27-32.13,25.8-52.84,26.13
			c-37.67,0.57-69-29.49-69.9-67.09c-0.45-18.7,6.5-36.36,19.55-49.73c13.05-13.37,30.53-20.73,49.22-20.73
			c21.04,0,40.64,9.44,53.78,25.9c4.71,5.9,11.61,9.28,18.93,9.28c13.2,0,23.94-10.74,23.94-23.94V698.13H490.79
			c-14.85,0-26.94-12.08-26.94-26.94c0-8.24,3.8-15.99,10.41-21.27c15.74-12.57,24.77-31.31,24.77-51.44
			c0-17.87-7.04-34.59-19.83-47.07c-12.78-12.48-29.66-19.11-47.56-18.69c-35.96,0.86-64.75,30.85-64.17,66.85
			c0.32,19.81,9.43,38.22,24.99,50.53c6.47,5.12,10.18,12.8,10.18,21.09c0,14.86-12.08,26.94-26.94,26.94H171.38v204.33
			c0,13.2,10.74,23.94,23.94,23.94c7.36,0,14.19-3.3,18.74-9.04c12.87-16.27,32.13-25.8,52.84-26.13c37.64-0.6,69,29.49,69.9,67.09
			c0.45,18.7-6.5,36.36-19.55,49.73c-13.06,13.37-30.53,20.73-49.22,20.73c-21.04,0-40.64-9.44-53.78-25.9
			c-4.71-5.9-11.61-9.28-18.93-9.28c-13.2,0-23.94,10.74-23.94,23.94V1221.87z"/>
	</g>
	<g>
		<path d="M1491.22,1390.31c-18.07,0-35.07-6.91-48.04-19.57c-13.37-13.06-20.73-30.53-20.73-49.22c0-21.04,9.44-40.64,25.9-53.78
			c5.9-4.71,9.28-11.61,9.28-18.93c0-13.2-10.74-23.94-23.94-23.94h-207.33v-207.33c0-14.85,12.08-26.94,26.94-26.94
			c8.24,0,15.99,3.79,21.27,10.41c12.56,15.74,31.31,24.77,51.44,24.77c17.87,0,34.59-7.04,47.07-19.83
			c12.48-12.78,19.12-29.67,18.69-47.56c-0.86-35.96-30.85-64.74-66.85-64.17c-19.81,0.32-38.22,9.43-50.53,24.99
			c-5.12,6.47-12.8,10.18-21.09,10.18c-14.86,0-26.94-12.08-26.94-26.94V695.13h207.33c13.2,0,23.94-10.74,23.94-23.94
			c0-7.36-3.3-14.19-9.04-18.74c-16.27-12.87-25.8-32.13-26.13-52.84c-0.61-37.65,29.49-69,67.09-69.9
			c18.74-0.46,36.37,6.5,49.73,19.55c13.37,13.06,20.73,30.53,20.73,49.22c0,21.04-9.44,40.64-25.9,53.78
			c-5.9,4.71-9.28,11.61-9.28,18.93c0,13.2,10.74,23.94,23.94,23.94h207.33v207.33c0,14.85-12.08,26.94-26.94,26.94
			c-8.24,0-15.99-3.8-21.27-10.41c-12.57-15.74-31.31-24.77-51.44-24.77c-17.87,0-34.59,7.04-47.07,19.83
			c-12.48,12.78-19.12,29.67-18.69,47.56c0.86,35.96,30.86,64.79,66.85,64.17c19.81-0.32,38.22-9.43,50.53-24.99
			c5.12-6.47,12.8-10.18,21.09-10.18c14.86,0,26.94,12.08,26.94,26.94v207.33h-207.33c-13.2,0-23.94,10.74-23.94,23.94
			c0,7.37,3.3,14.19,9.04,18.74c16.27,12.87,25.8,32.13,26.13,52.84c0.61,37.64-29.49,69-67.09,69.9
			C1492.35,1390.3,1491.79,1390.31,1491.22,1390.31z M1229.37,1221.87h204.33c14.85,0,26.94,12.08,26.94,26.94
			c0,8.24-3.79,15.99-10.41,21.27c-15.74,12.57-24.77,31.31-24.77,51.44c0,17.87,7.04,34.58,19.83,47.07
			c12.78,12.48,29.65,19.13,47.56,18.69c35.96-0.86,64.75-30.85,64.17-66.85c-0.32-19.81-9.43-38.22-24.99-50.53
			c-6.47-5.12-10.18-12.8-10.18-21.09c0-14.86,12.08-26.94,26.94-26.94h204.33v-204.33c0-13.2-10.74-23.94-23.94-23.94
			c-7.36,0-14.19,3.3-18.74,9.04c-12.87,16.27-32.13,25.8-52.84,26.13c-0.38,0.01-0.75,0.01-1.12,0.01
			c-37.14,0-67.89-29.87-68.78-67.1c-0.45-18.7,6.5-36.37,19.55-49.73c13.05-13.37,30.53-20.73,49.22-20.73
			c21.04,0,40.64,9.44,53.78,25.9c4.71,5.9,11.61,9.28,18.93,9.28c13.2,0,23.94-10.74,23.94-23.94V698.13h-204.33
			c-14.85,0-26.94-12.08-26.94-26.94c0-8.24,3.79-15.99,10.41-21.27c15.74-12.56,24.77-31.31,24.77-51.44
			c0-17.87-7.04-34.59-19.83-47.07c-12.78-12.48-29.69-19.11-47.56-18.69c-35.96,0.86-64.75,30.85-64.17,66.85
			c0.32,19.81,9.43,38.22,24.99,50.53c6.47,5.12,10.18,12.8,10.18,21.09c0,14.86-12.08,26.94-26.94,26.94h-204.33v204.33
			c0,13.2,10.74,23.94,23.94,23.94c7.37,0,14.19-3.3,18.74-9.04c12.87-16.27,32.13-25.8,52.84-26.13c37.68-0.62,69,29.49,69.9,67.09
			c0.45,18.7-6.5,36.36-19.55,49.73c-13.05,13.37-30.53,20.73-49.22,20.73c-21.04,0-40.64-9.44-53.78-25.9
			c-4.71-5.9-11.61-9.28-18.93-9.28c-13.2,0-23.94,10.74-23.94,23.94V1221.87z"/>
	</g>
	<g>
		<path d="M433.24,2444.24c-18.07,0-35.07-6.91-48.04-19.57c-13.37-13.05-20.73-30.53-20.73-49.22c0-21.04,9.44-40.64,25.9-53.78
			c5.9-4.71,9.28-11.61,9.28-18.93c0-13.2-10.74-23.94-23.94-23.94H168.38v-207.33c0-14.85,12.08-26.94,26.94-26.94
			c8.24,0,15.99,3.8,21.27,10.41c12.56,15.74,31.31,24.77,51.44,24.77c17.87,0,34.59-7.04,47.07-19.83
			c12.48-12.78,19.12-29.67,18.69-47.56c-0.86-35.96-30.86-64.73-66.85-64.17c-19.81,0.32-38.22,9.43-50.53,24.99
			c-5.12,6.47-12.8,10.18-21.09,10.18c-14.86,0-26.94-12.08-26.94-26.94v-207.33h207.33c13.2,0,23.94-10.74,23.94-23.94
			c0-7.36-3.3-14.19-9.04-18.74c-16.27-12.87-25.8-32.13-26.13-52.84c-0.61-37.65,29.49-69,67.09-69.9
			c18.71-0.42,36.36,6.5,49.73,19.55c13.37,13.05,20.73,30.53,20.73,49.22c0,21.04-9.44,40.64-25.9,53.78
			c-5.9,4.71-9.28,11.61-9.28,18.93c0,13.2,10.74,23.94,23.94,23.94h207.33v207.33c0,14.85-12.08,26.94-26.94,26.94
			c-8.24,0-15.99-3.8-21.27-10.41c-12.56-15.74-31.31-24.77-51.44-24.77c-17.87,0-34.59,7.04-47.07,19.83
			c-12.48,12.78-19.12,29.67-18.69,47.56c0.85,35.61,30.25,64.17,65.78,64.17c0.36,0,0.71,0,1.07-0.01
			c19.81-0.32,38.22-9.43,50.53-24.99c5.12-6.47,12.8-10.18,21.09-10.18c14.86,0,26.94,12.08,26.94,26.94v207.33H490.79
			c-13.2,0-23.94,10.74-23.94,23.94c0,7.36,3.3,14.19,9.04,18.74c16.27,12.87,25.8,32.13,26.13,52.84
			c0.61,37.65-29.49,69-67.09,69.9C434.37,2444.23,433.8,2444.24,433.24,2444.24z M171.38,2275.8h204.33
			c14.85,0,26.94,12.08,26.94,26.94c0,8.24-3.8,15.99-10.41,21.27c-15.74,12.57-24.77,31.31-24.77,51.44
			c0,17.87,7.04,34.58,19.83,47.07c12.78,12.48,29.69,19.15,47.56,18.69c35.96-0.86,64.75-30.85,64.17-66.85
			c-0.32-19.81-9.43-38.22-24.99-50.53c-6.47-5.12-10.18-12.8-10.18-21.09c0-14.86,12.08-26.94,26.94-26.94h204.33v-204.33
			c0-13.2-10.74-23.94-23.94-23.94c-7.36,0-14.19,3.3-18.74,9.04c-12.87,16.27-32.13,25.8-52.84,26.13
			c-0.37,0.01-0.75,0.01-1.12,0.01c-37.15,0-67.89-29.87-68.78-67.1c-0.45-18.7,6.5-36.37,19.55-49.73
			c13.05-13.37,30.53-20.73,49.22-20.73c21.04,0,40.64,9.44,53.78,25.9c4.71,5.9,11.61,9.29,18.93,9.29
			c13.2,0,23.94-10.74,23.94-23.94v-204.33H490.79c-14.85,0-26.94-12.08-26.94-26.94c0-8.24,3.8-15.99,10.41-21.27
			c15.74-12.57,24.77-31.31,24.77-51.44c0-17.87-7.04-34.58-19.83-47.07c-12.78-12.48-29.66-19.13-47.56-18.69
			c-35.96,0.86-64.75,30.85-64.17,66.85c0.32,19.81,9.43,38.22,24.99,50.53c6.47,5.12,10.18,12.8,10.18,21.09
			c0,14.86-12.08,26.94-26.94,26.94H171.38v204.33c0,13.2,10.74,23.94,23.94,23.94c7.36,0,14.19-3.3,18.74-9.04
			c12.87-16.27,32.13-25.8,52.84-26.13c0.37-0.01,0.75-0.01,1.12-0.01c37.15,0,67.89,29.87,68.78,67.1
			c0.45,18.7-6.5,36.37-19.55,49.73c-13.05,13.37-30.53,20.73-49.22,20.73c-21.04,0-40.64-9.44-53.78-25.9
			c-4.71-5.9-11.61-9.29-18.93-9.29c-13.2,0-23.94,10.74-23.94,23.94V2275.8z"/>
	</g>
	<g>
		<path d="M1491.22,2444.24c-18.07,0-35.07-6.91-48.04-19.57c-13.37-13.05-20.73-30.53-20.73-49.22c0-21.04,9.44-40.64,25.9-53.78
			c5.9-4.71,9.28-11.61,9.28-18.93c0-13.2-10.74-23.94-23.94-23.94h-207.33v-207.33c0-14.85,12.08-26.94,26.94-26.94
			c8.24,0,15.99,3.79,21.27,10.41c12.56,15.74,31.31,24.77,51.44,24.77c17.87,0,34.59-7.04,47.07-19.83
			c12.48-12.78,19.12-29.67,18.69-47.56c-0.86-35.96-30.83-64.71-66.85-64.17c-19.81,0.32-38.22,9.43-50.53,24.99
			c-5.12,6.47-12.8,10.18-21.09,10.18c-14.86,0-26.94-12.08-26.94-26.94v-207.33h207.33c13.2,0,23.94-10.74,23.94-23.94
			c0-7.36-3.3-14.19-9.04-18.74c-16.27-12.87-25.8-32.13-26.13-52.84c-0.61-37.65,29.49-69,67.09-69.9
			c18.71-0.44,36.36,6.5,49.73,19.55c13.37,13.05,20.73,30.53,20.73,49.22c0,21.04-9.44,40.64-25.9,53.78
			c-5.9,4.71-9.28,11.61-9.28,18.93c0,13.2,10.74,23.94,23.94,23.94h207.33v207.33c0,14.85-12.08,26.94-26.94,26.94
			c-8.24,0-15.99-3.8-21.27-10.41c-12.56-15.74-31.31-24.77-51.44-24.77c-17.87,0-34.59,7.04-47.07,19.83
			c-12.48,12.78-19.12,29.67-18.69,47.56c0.86,35.96,30.86,64.77,66.85,64.17c19.81-0.32,38.22-9.43,50.53-24.99
			c5.12-6.47,12.8-10.18,21.09-10.18c14.86,0,26.94,12.08,26.94,26.94v207.33h-207.33c-13.2,0-23.94,10.74-23.94,23.94
			c0,7.36,3.3,14.19,9.04,18.74c16.27,12.87,25.8,32.13,26.13,52.84c0.61,37.65-29.49,69-67.09,69.9
			C1492.35,2444.23,1491.79,2444.24,1491.22,2444.24z M1229.37,2275.8h204.33c14.85,0,26.94,12.08,26.94,26.94
			c0,8.24-3.79,15.99-10.41,21.27c-15.74,12.57-24.77,31.31-24.77,51.44c0,17.87,7.04,34.58,19.83,47.07
			c12.78,12.48,29.65,19.14,47.56,18.69c35.96-0.86,64.75-30.85,64.17-66.85c-0.32-19.81-9.43-38.22-24.99-50.53
			c-6.47-5.12-10.18-12.8-10.18-21.09c0-14.86,12.08-26.94,26.94-26.94h204.33v-204.33c0-13.2-10.74-23.94-23.94-23.94
			c-7.36,0-14.19,3.3-18.74,9.04c-12.87,16.27-32.13,25.8-52.84,26.13c-0.38,0.01-0.75,0.01-1.12,0.01
			c-37.14,0-67.89-29.87-68.78-67.1c-0.45-18.7,6.5-36.37,19.55-49.73c13.05-13.37,30.53-20.73,49.22-20.73
			c21.04,0,40.64,9.44,53.78,25.9c4.71,5.9,11.61,9.29,18.93,9.29c13.2,0,23.94-10.74,23.94-23.94v-204.33h-204.33
			c-14.85,0-26.94-12.08-26.94-26.94c0-8.24,3.79-15.99,10.41-21.27c15.74-12.57,24.77-31.31,24.77-51.44
			c0-17.87-7.04-34.58-19.83-47.07c-12.78-12.48-29.69-19.14-47.56-18.69c-35.96,0.86-64.75,30.85-64.17,66.85
			c0.32,19.81,9.43,38.22,24.99,50.53c6.47,5.12,10.18,12.8,10.18,21.09c0,14.86-12.08,26.94-26.94,26.94h-204.33v204.33
			c0,13.2,10.74,23.94,23.94,23.94c7.37,0,14.19-3.3,18.74-9.04c12.87-16.27,32.13-25.8,52.84-26.13c37.64-0.6,69,29.49,69.9,67.09
			c0.45,18.7-6.5,36.36-19.55,49.73c-13.05,13.37-30.53,20.73-49.22,20.73c-21.04,0-40.64-9.44-53.78-25.9
			c-4.71-5.9-11.61-9.28-18.93-9.28c-13.2,0-23.94,10.74-23.94,23.94V2275.8z"/>
	</g>
	<g>
		<path d="M2016.32,1917.05c-18.07,0-35.07-6.91-48.03-19.57c-13.37-13.05-20.73-30.53-20.73-49.22c0-21.04,9.44-40.64,25.9-53.78
			c5.9-4.71,9.28-11.61,9.28-18.93c0-13.2-10.74-23.94-23.94-23.94h-207.33v-207.33c0-14.85,12.08-26.94,26.94-26.94
			c8.24,0,15.99,3.8,21.27,10.41c12.56,15.74,31.31,24.77,51.44,24.77c17.87,0,34.59-7.04,47.07-19.83
			c12.48-12.78,19.12-29.67,18.69-47.56c-0.85-35.6-30.25-64.17-65.78-64.17c-0.36,0-0.71,0-1.07,0.01
			c-19.81,0.32-38.22,9.43-50.53,24.99c-5.12,6.47-12.8,10.18-21.09,10.18c-14.86,0-26.94-12.08-26.94-26.94v-207.33h207.33
			c13.2,0,23.94-10.74,23.94-23.94c0-7.36-3.3-14.19-9.04-18.74c-16.27-12.87-25.8-32.13-26.13-52.84
			c-0.61-37.65,29.49-69,67.09-69.9c18.7-0.43,36.37,6.5,49.73,19.55c13.37,13.05,20.73,30.53,20.73,49.22
			c0,21.04-9.44,40.64-25.9,53.78c-5.9,4.71-9.28,11.61-9.28,18.93c0,13.2,10.74,23.94,23.94,23.94h207.33v207.33
			c0,14.85-12.08,26.94-26.94,26.94c-8.24,0-15.99-3.79-21.27-10.41c-12.56-15.74-31.31-24.77-51.44-24.77
			c-17.87,0-34.59,7.04-47.07,19.83c-12.48,12.78-19.12,29.67-18.69,47.56c0.86,35.96,30.84,64.75,66.85,64.17
			c19.81-0.32,38.22-9.43,50.53-24.99c5.12-6.47,12.8-10.18,21.09-10.18c14.86,0,26.94,12.08,26.94,26.94v207.33h-207.33
			c-13.2,0-23.94,10.74-23.94,23.94c0,7.36,3.3,14.19,9.04,18.74c16.27,12.87,25.8,32.13,26.13,52.84
			c0.61,37.65-29.49,69-67.09,69.9C2017.45,1917.05,2016.88,1917.05,2016.32,1917.05z M1754.46,1748.62h204.33
			c14.85,0,26.94,12.08,26.94,26.94c0,8.24-3.79,15.99-10.41,21.27c-15.74,12.57-24.77,31.31-24.77,51.44
			c0,17.87,7.04,34.58,19.83,47.07c12.78,12.48,29.69,19.15,47.56,18.69c35.96-0.86,64.75-30.85,64.17-66.85
			c-0.32-19.81-9.43-38.22-24.99-50.53c-6.47-5.12-10.18-12.8-10.18-21.09c0-14.86,12.08-26.94,26.94-26.94h204.33v-204.33
			c0-13.2-10.74-23.94-23.94-23.94c-7.36,0-14.19,3.3-18.74,9.04c-12.87,16.27-32.13,25.8-52.84,26.13
			c-0.37,0.01-0.75,0.01-1.12,0.01c-37.15,0-67.89-29.87-68.78-67.1c-0.45-18.7,6.5-36.36,19.55-49.73
			c13.05-13.37,30.53-20.73,49.22-20.73c21.04,0,40.64,9.44,53.78,25.9c4.71,5.9,11.61,9.28,18.93,9.28
			c13.2,0,23.94-10.74,23.94-23.94v-204.33h-204.33c-14.85,0-26.94-12.08-26.94-26.94c0-8.24,3.79-15.99,10.41-21.27
			c15.74-12.57,24.77-31.31,24.77-51.44c0-17.87-7.04-34.58-19.83-47.07c-12.78-12.48-29.67-19.16-47.56-18.69
			c-35.96,0.86-64.75,30.85-64.17,66.85c0.32,19.81,9.43,38.22,24.99,50.53c6.47,5.12,10.18,12.8,10.18,21.09
			c0,14.86-12.08,26.94-26.94,26.94h-204.33v204.33c0,13.2,10.74,23.94,23.94,23.94c7.36,0,14.19-3.3,18.74-9.04
			c12.87-16.27,32.13-25.8,52.84-26.13c0.38-0.01,0.75-0.01,1.12-0.01c37.14,0,67.89,29.87,68.78,67.1
			c0.45,18.7-6.5,36.37-19.55,49.73c-13.05,13.37-30.53,20.73-49.22,20.73c-21.04,0-40.64-9.44-53.78-25.9
			c-4.71-5.9-11.61-9.29-18.93-9.29c-13.2,0-23.94,10.74-23.94,23.94V1748.62z"/>
	</g>
	<g>
		<path d="M-95.17,1917.05c-18.07,0-35.07-6.91-48.04-19.57c-13.37-13.05-20.73-30.53-20.73-49.22c0-21.04,9.44-40.64,25.9-53.78
			c5.9-4.71,9.28-11.61,9.28-18.93c0-13.2-10.74-23.94-23.94-23.94h-207.33v-207.33c0-14.85,12.08-26.94,26.94-26.94
			c8.24,0,15.99,3.8,21.27,10.41c12.56,15.74,31.31,24.77,51.44,24.77c17.87,0,34.58-7.04,47.07-19.83
			c12.48-12.78,19.12-29.67,18.69-47.56c-0.86-35.96-30.87-64.73-66.85-64.17c-19.81,0.32-38.22,9.43-50.53,24.99
			c-5.12,6.47-12.8,10.18-21.09,10.18c-14.86,0-26.94-12.08-26.94-26.94v-207.33h207.33c13.2,0,23.94-10.74,23.94-23.94
			c0-7.36-3.3-14.19-9.04-18.74c-16.27-12.87-25.8-32.13-26.13-52.84c-0.61-37.65,29.49-69,67.09-69.9
			c18.7-0.43,36.37,6.5,49.73,19.55c13.37,13.05,20.73,30.53,20.73,49.22c0,21.04-9.44,40.64-25.9,53.78
			c-5.9,4.71-9.28,11.61-9.28,18.93c0,13.2,10.74,23.94,23.94,23.94h207.33v207.33c0,14.85-12.08,26.94-26.94,26.94
			c-8.24,0-15.99-3.79-21.27-10.41c-12.56-15.74-31.31-24.77-51.44-24.77c-17.87,0-34.59,7.04-47.07,19.83
			c-12.48,12.78-19.12,29.67-18.69,47.56c0.85,35.61,30.25,64.18,65.78,64.18c0.36,0,0.71,0,1.07-0.01
			c19.81-0.32,38.23-9.43,50.53-24.99c5.12-6.47,12.8-10.18,21.09-10.18c14.86,0,26.94,12.08,26.94,26.94v207.33H-37.62
			c-13.2,0-23.94,10.74-23.94,23.94c0,7.36,3.3,14.19,9.04,18.74c16.27,12.87,25.8,32.13,26.13,52.84
			c0.61,37.65-29.49,69-67.09,69.9C-94.04,1917.05-94.61,1917.05-95.17,1917.05z M-357.03,1748.62h204.33
			c14.85,0,26.94,12.08,26.94,26.94c0,8.24-3.8,15.99-10.41,21.27c-15.74,12.57-24.77,31.31-24.77,51.44
			c0,17.87,7.04,34.58,19.83,47.07c12.78,12.48,29.68,19.16,47.56,18.69c35.96-0.86,64.75-30.85,64.17-66.85
			c-0.32-19.81-9.43-38.22-24.99-50.53c-6.47-5.12-10.18-12.8-10.18-21.09c0-14.86,12.08-26.94,26.94-26.94h204.33v-204.33
			c0-13.2-10.74-23.94-23.94-23.94c-7.36,0-14.19,3.3-18.74,9.04c-12.87,16.27-32.13,25.8-52.84,26.13
			c-0.37,0.01-0.75,0.01-1.12,0.01c-37.15,0-67.89-29.87-68.78-67.1c-0.45-18.7,6.5-36.37,19.55-49.73
			c13.06-13.37,30.53-20.73,49.22-20.73c21.04,0,40.64,9.44,53.78,25.9c4.71,5.9,11.61,9.28,18.93,9.28
			c13.2,0,23.94-10.74,23.94-23.94v-204.33H-37.62c-14.85,0-26.94-12.08-26.94-26.94c0-8.24,3.8-15.99,10.41-21.27
			c15.74-12.57,24.77-31.31,24.77-51.44c0-17.87-7.04-34.58-19.83-47.07c-12.78-12.48-29.67-19.14-47.56-18.69
			c-35.96,0.86-64.75,30.85-64.17,66.85c0.32,19.81,9.43,38.22,24.99,50.53c6.47,5.12,10.18,12.8,10.18,21.09
			c0,14.86-12.08,26.94-26.94,26.94h-204.33v204.33c0,13.2,10.74,23.94,23.94,23.94c7.36,0,14.19-3.3,18.74-9.04
			c12.87-16.27,32.13-25.8,52.84-26.13c0.37-0.01,0.75-0.01,1.12-0.01c37.14,0,67.89,29.87,68.78,67.1
			c0.45,18.7-6.5,36.37-19.55,49.73c-13.06,13.37-30.53,20.73-49.22,20.73c-21.04,0-40.64-9.44-53.78-25.9
			c-4.71-5.9-11.61-9.29-18.93-9.29c-13.2,0-23.94,10.74-23.94,23.94V1748.62z"/>
	</g>
	<g>
		<path d="M-93.51,863.12c-18.07,0-35.07-6.91-48.03-19.57c-13.37-13.05-20.73-30.53-20.73-49.22c0-21.04,9.44-40.64,25.9-53.78
			c5.9-4.71,9.28-11.61,9.28-18.93c0-13.2-10.74-23.94-23.94-23.94h-207.33V490.35c0-14.85,12.08-26.94,26.94-26.94
			c8.24,0,15.99,3.8,21.27,10.41c12.57,15.74,31.31,24.77,51.44,24.77c17.87,0,34.59-7.04,47.07-19.83
			c12.48-12.78,19.12-29.67,18.69-47.56c-0.86-35.96-30.89-64.76-66.85-64.17c-19.81,0.32-38.22,9.43-50.53,24.99
			c-5.12,6.47-12.8,10.18-21.09,10.18c-14.86,0-26.94-12.08-26.94-26.94V167.94h207.33c13.2,0,23.94-10.74,23.94-23.94
			c0-7.36-3.3-14.19-9.04-18.74c-16.27-12.87-25.8-32.13-26.13-52.84c-0.61-37.65,29.49-69,67.09-69.9
			c18.68-0.46,36.36,6.49,49.73,19.55c13.37,13.05,20.73,30.53,20.73,49.22c0,21.04-9.44,40.64-25.9,53.78
			c-5.9,4.71-9.28,11.61-9.28,18.93c0,13.2,10.74,23.94,23.94,23.94h207.33v207.33c0,14.85-12.08,26.94-26.94,26.94
			c-8.24,0-15.99-3.8-21.27-10.41c-12.57-15.74-31.31-24.77-51.44-24.77c-17.87,0-34.59,7.04-47.07,19.83
			c-12.48,12.78-19.12,29.67-18.69,47.56c0.86,35.96,30.81,64.75,66.85,64.17c19.81-0.32,38.22-9.43,50.53-24.99
			c5.12-6.47,12.8-10.18,21.09-10.18c14.86,0,26.94,12.08,26.94,26.94v207.33H-35.95c-13.2,0-23.94,10.74-23.94,23.94
			c0,7.36,3.3,14.19,9.04,18.74c16.27,12.87,25.8,32.13,26.13,52.84c0.61,37.65-29.49,69-67.09,69.9
			C-92.38,863.11-92.94,863.12-93.51,863.12z M-355.36,694.69h204.33c14.85,0,26.94,12.08,26.94,26.94c0,8.24-3.8,15.99-10.41,21.27
			c-15.74,12.57-24.77,31.31-24.77,51.44c0,17.87,7.04,34.59,19.83,47.07c12.78,12.48,29.67,19.12,47.56,18.69
			c35.96-0.86,64.75-30.85,64.17-66.85c-0.32-19.81-9.43-38.22-24.99-50.53c-6.47-5.12-10.18-12.8-10.18-21.09
			c0-14.86,12.08-26.94,26.94-26.94h204.33V490.35c0-13.2-10.74-23.94-23.94-23.94c-7.36,0-14.19,3.3-18.74,9.04
			c-12.87,16.27-32.13,25.8-52.84,26.13c-37.68,0.6-69-29.49-69.9-67.09c-0.45-18.7,6.5-36.36,19.55-49.73
			c13.05-13.37,30.53-20.73,49.22-20.73c21.04,0,40.64,9.44,53.78,25.9c4.71,5.9,11.61,9.28,18.93,9.28
			c13.2,0,23.94-10.74,23.94-23.94V170.94H-35.95c-14.85,0-26.94-12.08-26.94-26.94c0-8.24,3.8-15.99,10.41-21.27
			c15.74-12.56,24.77-31.31,24.77-51.44c0-17.87-7.04-34.59-19.83-47.07C-60.32,11.74-77.19,5.11-95.1,5.53
			c-35.96,0.86-64.75,30.85-64.17,66.85c0.32,19.81,9.43,38.22,24.99,50.53c6.47,5.12,10.18,12.8,10.18,21.09
			c0,14.86-12.08,26.94-26.94,26.94h-204.33v204.33c0,13.2,10.74,23.94,23.94,23.94c7.36,0,14.19-3.3,18.74-9.04
			c12.87-16.27,32.13-25.8,52.84-26.13c37.66-0.58,69,29.49,69.9,67.09c0.45,18.7-6.5,36.36-19.55,49.73
			c-13.05,13.37-30.53,20.73-49.22,20.73c-21.04,0-40.64-9.44-53.78-25.9c-4.71-5.9-11.61-9.28-18.93-9.28
			c-13.2,0-23.94,10.74-23.94,23.94V694.69z"/>
	</g>
	<g>
		<path d="M2016.32,863.12c-18.07,0-35.07-6.91-48.03-19.57c-13.37-13.06-20.73-30.53-20.73-49.22c0-21.04,9.44-40.64,25.9-53.78
			c5.9-4.71,9.28-11.61,9.28-18.93c0-13.2-10.74-23.94-23.94-23.94h-207.33V490.35c0-14.85,12.08-26.94,26.94-26.94
			c8.24,0,15.99,3.8,21.27,10.41c12.57,15.74,31.31,24.77,51.44,24.77c17.87,0,34.59-7.04,47.07-19.83
			c12.48-12.78,19.12-29.67,18.69-47.56c-0.85-35.6-30.26-64.17-65.78-64.17c-0.36,0-0.71,0-1.07,0.01
			c-19.81,0.32-38.22,9.43-50.53,24.99c-5.12,6.47-12.8,10.18-21.09,10.18c-14.86,0-26.94-12.08-26.94-26.94V167.94h207.33
			c13.2,0,23.94-10.74,23.94-23.94c0-7.36-3.3-14.19-9.04-18.74c-16.27-12.87-25.8-32.13-26.13-52.84
			c-0.61-37.65,29.49-69,67.09-69.9c18.73-0.45,36.37,6.5,49.73,19.55c13.37,13.06,20.73,30.53,20.73,49.22
			c0,21.04-9.44,40.64-25.9,53.78c-5.9,4.71-9.28,11.61-9.28,18.93c0,13.2,10.74,23.94,23.94,23.94h207.33v207.33
			c0,14.85-12.08,26.94-26.94,26.94c-8.24,0-15.99-3.8-21.27-10.41c-12.57-15.74-31.31-24.77-51.44-24.77
			c-17.87,0-34.58,7.04-47.07,19.83c-12.48,12.78-19.12,29.67-18.69,47.56c0.85,35.6,30.26,64.17,65.78,64.17
			c0.36,0,0.71,0,1.07-0.01c19.81-0.32,38.22-9.43,50.53-24.99c5.12-6.47,12.8-10.18,21.09-10.18c14.86,0,26.94,12.08,26.94,26.94
			v207.33h-207.33c-13.2,0-23.94,10.74-23.94,23.94c0,7.36,3.3,14.19,9.04,18.74c16.27,12.87,25.8,32.13,26.13,52.84
			c0.61,37.65-29.49,69-67.09,69.9C2017.45,863.11,2016.88,863.12,2016.32,863.12z M1754.46,694.69h204.33
			c14.85,0,26.94,12.08,26.94,26.94c0,8.24-3.79,15.99-10.41,21.27c-15.74,12.56-24.77,31.31-24.77,51.44
			c0,17.87,7.04,34.59,19.83,47.07c12.78,12.48,29.66,19.11,47.56,18.69c35.96-0.86,64.75-30.85,64.17-66.85
			c-0.32-19.81-9.43-38.22-24.99-50.53c-6.47-5.12-10.18-12.8-10.18-21.09c0-14.86,12.08-26.94,26.94-26.94h204.33V490.35
			c0-13.2-10.74-23.94-23.94-23.94c-7.37,0-14.19,3.3-18.74,9.04c-12.87,16.27-32.13,25.8-52.84,26.13
			c-0.38,0.01-0.75,0.01-1.12,0.01c-37.14,0-67.89-29.87-68.78-67.1c-0.45-18.7,6.5-36.36,19.55-49.73
			c13.05-13.37,30.53-20.73,49.22-20.73c21.04,0,40.64,9.44,53.78,25.9c4.71,5.9,11.61,9.28,18.93,9.28
			c13.2,0,23.94-10.74,23.94-23.94V170.94h-204.33c-14.85,0-26.94-12.08-26.94-26.94c0-8.24,3.79-15.99,10.41-21.27
			c15.74-12.57,24.77-31.31,24.77-51.44c0-17.87-7.04-34.58-19.83-47.07c-12.78-12.48-29.72-19.11-47.56-18.69
			c-35.96,0.86-64.75,30.85-64.17,66.85c0.32,19.81,9.43,38.22,24.99,50.53c6.47,5.12,10.18,12.8,10.18,21.09
			c0,14.86-12.08,26.94-26.94,26.94h-204.33v204.33c0,13.2,10.74,23.94,23.94,23.94c7.36,0,14.19-3.3,18.74-9.04
			c12.87-16.27,32.13-25.8,52.84-26.13c0.38-0.01,0.75-0.01,1.12-0.01c37.14,0,67.89,29.87,68.78,67.1
			c0.45,18.7-6.5,36.36-19.55,49.73c-13.05,13.37-30.53,20.73-49.22,20.73c-21.04,0-40.64-9.44-53.78-25.9
			c-4.71-5.9-11.61-9.28-18.93-9.28c-13.2,0-23.94,10.74-23.94,23.94V694.69z"/>
	</g>
	<g>
		<path d="M1486.73,336.38c-18.07,0-35.07-6.91-48.04-19.57c-13.37-13.06-20.73-30.53-20.73-49.22c0-21.04,9.44-40.64,25.9-53.78
			c5.9-4.71,9.28-11.61,9.28-18.93c0-13.2-10.74-23.94-23.94-23.94h-207.33V-36.39c0-14.85,12.08-26.94,26.94-26.94
			c8.24,0,15.99,3.8,21.27,10.41c12.56,15.74,31.31,24.77,51.44,24.77c17.87,0,34.58-7.04,47.07-19.83
			c12.48-12.78,19.12-29.67,18.69-47.56c-0.86-35.96-30.84-64.72-66.85-64.17c-19.81,0.32-38.22,9.43-50.53,24.99
			c-5.12,6.47-12.8,10.18-21.09,10.18c-14.86,0-26.94-12.08-26.94-26.94V-358.8h207.33c13.2,0,23.94-10.74,23.94-23.94
			c0-7.36-3.3-14.19-9.04-18.74c-16.27-12.87-25.8-32.13-26.13-52.84c-0.61-37.65,29.49-69,67.09-69.9
			c18.74-0.46,36.37,6.5,49.73,19.55c13.37,13.06,20.73,30.53,20.73,49.22c0,21.04-9.44,40.64-25.9,53.78
			c-5.9,4.71-9.28,11.61-9.28,18.93c0,13.2,10.74,23.94,23.94,23.94h207.33v207.33c0,14.85-12.08,26.94-26.94,26.94
			c-8.24,0-15.99-3.8-21.27-10.41c-12.57-15.74-31.31-24.77-51.44-24.77c-17.87,0-34.59,7.04-47.07,19.83
			c-12.48,12.78-19.12,29.67-18.69,47.56c0.85,35.6,30.26,64.17,65.78,64.17c0.36,0,0.71,0,1.07-0.01
			c19.81-0.32,38.22-9.43,50.53-24.99c5.12-6.47,12.8-10.18,21.09-10.18c14.86,0,26.94,12.08,26.94,26.94v207.33h-207.33
			c-13.2,0-23.94,10.74-23.94,23.94c0,7.36,3.3,14.19,9.04,18.74c16.27,12.87,25.8,32.13,26.13,52.84
			c0.61,37.65-29.49,69-67.09,69.9C1487.86,336.37,1487.29,336.38,1486.73,336.38z M1224.87,167.94h204.33
			c14.85,0,26.94,12.08,26.94,26.94c0,8.24-3.79,15.99-10.41,21.27c-15.74,12.57-24.77,31.31-24.77,51.44
			c0,17.87,7.04,34.58,19.83,47.07c12.78,12.48,29.66,19.11,47.56,18.69c35.96-0.86,64.75-30.85,64.17-66.85
			c-0.32-19.81-9.43-38.22-24.99-50.53c-6.47-5.12-10.18-12.8-10.18-21.09c0-14.86,12.08-26.94,26.94-26.94h204.33V-36.39
			c0-13.2-10.74-23.94-23.94-23.94c-7.37,0-14.19,3.3-18.74,9.04c-12.87,16.27-32.13,25.8-52.84,26.13
			c-0.38,0.01-0.75,0.01-1.12,0.01c-37.14,0-67.89-29.87-68.78-67.1c-0.45-18.7,6.5-36.36,19.55-49.73
			c13.05-13.37,30.53-20.73,49.22-20.73c21.04,0,40.64,9.44,53.78,25.9c4.71,5.9,11.61,9.28,18.93,9.28
			c13.2,0,23.94-10.74,23.94-23.94V-355.8h-204.33c-14.85,0-26.94-12.08-26.94-26.94c0-8.24,3.79-15.99,10.41-21.27
			c15.74-12.56,24.77-31.31,24.77-51.44c0-17.87-7.04-34.59-19.83-47.07c-12.78-12.48-29.7-19.11-47.56-18.69
			c-35.96,0.86-64.75,30.85-64.17,66.85c0.32,19.81,9.43,38.22,24.99,50.53c6.47,5.12,10.18,12.8,10.18,21.09
			c0,14.86-12.08,26.94-26.94,26.94h-204.33v204.33c0,13.2,10.74,23.94,23.94,23.94c7.37,0,14.19-3.3,18.74-9.04
			c12.87-16.27,32.13-25.8,52.84-26.13c37.66-0.59,69,29.49,69.9,67.09c0.45,18.7-6.5,36.36-19.55,49.73
			c-13.05,13.37-30.53,20.73-49.22,20.73c-21.04,0-40.64-9.44-53.78-25.9c-4.71-5.9-11.61-9.28-18.93-9.28
			c-13.2,0-23.94,10.74-23.94,23.94V167.94z"/>
	</g>
	<g>
		<path d="M433.24,336.38c-18.07,0-35.07-6.91-48.03-19.57c-13.37-13.05-20.73-30.53-20.73-49.22c0-21.04,9.44-40.64,25.9-53.78
			c5.9-4.71,9.28-11.61,9.28-18.93c0-13.2-10.74-23.94-23.94-23.94H168.38V-36.39c0-14.85,12.08-26.94,26.94-26.94
			c8.24,0,15.99,3.8,21.27,10.41c12.57,15.74,31.31,24.77,51.44,24.77c17.87,0,34.59-7.04,47.07-19.83
			c12.48-12.78,19.12-29.67,18.69-47.56c-0.86-35.96-30.87-64.72-66.85-64.17c-19.81,0.32-38.22,9.43-50.53,24.99
			c-5.12,6.47-12.8,10.18-21.09,10.18c-14.86,0-26.94-12.08-26.94-26.94V-358.8h207.33c13.2,0,23.94-10.74,23.94-23.94
			c0-7.36-3.3-14.19-9.04-18.74c-16.27-12.87-25.8-32.13-26.13-52.84c-0.61-37.65,29.49-69,67.09-69.9
			c18.7-0.45,36.36,6.5,49.73,19.55c13.37,13.05,20.73,30.53,20.73,49.22c0,21.04-9.44,40.64-25.9,53.78
			c-5.9,4.71-9.28,11.61-9.28,18.93c0,13.2,10.74,23.94,23.94,23.94h207.33v207.33c0,14.85-12.08,26.94-26.94,26.94
			c-8.24,0-15.99-3.8-21.27-10.41c-12.57-15.74-31.31-24.77-51.44-24.77c-17.87,0-34.59,7.04-47.07,19.83
			c-12.48,12.78-19.12,29.67-18.69,47.56c0.86,35.96,30.89,64.77,66.85,64.17c19.81-0.32,38.22-9.43,50.53-24.99
			c5.12-6.47,12.8-10.18,21.09-10.18c14.86,0,26.94,12.08,26.94,26.94v207.33H490.79c-13.2,0-23.94,10.74-23.94,23.94
			c0,7.36,3.3,14.19,9.04,18.74c16.27,12.87,25.8,32.13,26.13,52.84c0.61,37.65-29.49,69-67.09,69.9
			C434.37,336.37,433.8,336.38,433.24,336.38z M171.38,167.94h204.33c14.85,0,26.94,12.08,26.94,26.94c0,8.24-3.8,15.99-10.41,21.27
			c-15.74,12.57-24.77,31.31-24.77,51.44c0,17.87,7.04,34.59,19.83,47.07c12.78,12.48,29.66,19.11,47.56,18.69
			c35.96-0.86,64.75-30.85,64.17-66.85c-0.32-19.81-9.43-38.22-24.99-50.53c-6.47-5.12-10.18-12.8-10.18-21.09
			c0-14.86,12.08-26.94,26.94-26.94h204.33V-36.39c0-13.2-10.74-23.94-23.94-23.94c-7.36,0-14.19,3.3-18.74,9.04
			c-12.87,16.27-32.13,25.8-52.84,26.13c-37.67,0.58-69-29.49-69.9-67.09c-0.45-18.7,6.5-36.36,19.55-49.73
			c13.05-13.37,30.53-20.73,49.22-20.73c21.04,0,40.64,9.44,53.78,25.9c4.71,5.9,11.61,9.28,18.93,9.28
			c13.2,0,23.94-10.74,23.94-23.94V-355.8H490.79c-14.85,0-26.94-12.08-26.94-26.94c0-8.24,3.8-15.99,10.41-21.27
			c15.74-12.57,24.77-31.31,24.77-51.44c0-17.87-7.04-34.59-19.83-47.07c-12.78-12.48-29.66-19.1-47.56-18.69
			c-35.96,0.86-64.75,30.85-64.17,66.85c0.32,19.81,9.43,38.22,24.99,50.53c6.47,5.12,10.18,12.8,10.18,21.09
			c0,14.86-12.08,26.94-26.94,26.94H171.38v204.33c0,13.2,10.74,23.94,23.94,23.94c7.36,0,14.19-3.3,18.74-9.04
			c12.87-16.27,32.13-25.8,52.84-26.13c37.64-0.6,69,29.49,69.9,67.09c0.45,18.7-6.5,36.36-19.55,49.73
			c-13.05,13.37-30.53,20.73-49.22,20.73c-21.04,0-40.64-9.44-53.78-25.9c-4.71-5.9-11.61-9.28-18.93-9.28
			c-13.2,0-23.94,10.74-23.94,23.94V167.94z"/>
	</g>
	<g>
		<path d="M959.98,1917.05c-18.07,0-35.07-6.91-48.04-19.57c-13.37-13.05-20.73-30.53-20.73-49.22c0-21.04,9.44-40.64,25.9-53.78
			c5.9-4.71,9.28-11.61,9.28-18.93c0-13.2-10.74-23.94-23.94-23.94H695.13v-207.33c0-14.85,12.08-26.94,26.94-26.94
			c8.24,0,15.99,3.8,21.27,10.41c12.56,15.74,31.31,24.77,51.44,24.77c17.87,0,34.58-7.04,47.07-19.83
			c12.48-12.78,19.12-29.67,18.69-47.56c-0.86-35.96-30.85-64.73-66.85-64.17c-19.81,0.32-38.22,9.43-50.53,24.99
			c-5.12,6.47-12.8,10.18-21.09,10.18c-14.86,0-26.94-12.08-26.94-26.94v-207.33h207.33c13.2,0,23.94-10.74,23.94-23.94
			c0-7.36-3.3-14.19-9.04-18.74c-16.27-12.87-25.8-32.13-26.13-52.84c-0.61-37.65,29.49-69,67.09-69.9
			c18.7-0.43,36.36,6.5,49.73,19.55c13.37,13.05,20.73,30.53,20.73,49.22c0,21.04-9.44,40.64-25.9,53.78
			c-5.9,4.71-9.28,11.61-9.28,18.93c0,13.2,10.74,23.94,23.94,23.94h207.33v207.33c0,14.85-12.08,26.94-26.94,26.94
			c-8.24,0-15.99-3.79-21.27-10.41c-12.56-15.74-31.31-24.77-51.44-24.77c-17.87,0-34.59,7.04-47.07,19.83
			c-12.48,12.78-19.12,29.67-18.69,47.56c0.85,35.61,30.25,64.18,65.78,64.18c0.36,0,0.71,0,1.07-0.01
			c19.81-0.32,38.22-9.43,50.53-24.99c5.12-6.47,12.8-10.18,21.09-10.18c14.86,0,26.94,12.08,26.94,26.94v207.33h-207.33
			c-13.2,0-23.94,10.74-23.94,23.94c0,7.36,3.3,14.19,9.04,18.74c16.27,12.87,25.8,32.13,26.13,52.84
			c0.61,37.65-29.49,69-67.09,69.9C961.12,1917.05,960.55,1917.05,959.98,1917.05z M698.13,1748.62h204.33
			c14.85,0,26.94,12.08,26.94,26.94c0,8.24-3.8,15.99-10.41,21.27c-15.74,12.57-24.77,31.31-24.77,51.44
			c0,17.87,7.04,34.58,19.83,47.07c12.4,12.1,28.66,18.71,45.94,18.71c0.54,0,1.08-0.01,1.62-0.02
			c35.96-0.86,64.75-30.85,64.17-66.85c-0.32-19.81-9.43-38.22-24.99-50.53c-6.47-5.12-10.18-12.8-10.18-21.09
			c0-14.86,12.08-26.94,26.94-26.94h204.33v-204.33c0-13.2-10.74-23.94-23.94-23.94c-7.36,0-14.19,3.3-18.74,9.04
			c-12.87,16.27-32.13,25.8-52.84,26.13c-0.37,0.01-0.75,0.01-1.12,0.01c-37.15,0-67.89-29.87-68.78-67.1
			c-0.45-18.7,6.5-36.36,19.55-49.73c13.05-13.37,30.53-20.73,49.22-20.73c21.04,0,40.64,9.44,53.78,25.9
			c4.71,5.9,11.61,9.28,18.93,9.28c13.2,0,23.94-10.74,23.94-23.94v-204.33h-204.33c-14.85,0-26.94-12.08-26.94-26.94
			c0-8.24,3.79-15.99,10.41-21.27c15.74-12.57,24.77-31.31,24.77-51.44c0-17.87-7.04-34.58-19.83-47.07
			c-12.78-12.48-29.67-19.14-47.56-18.69c-35.96,0.86-64.75,30.85-64.17,66.85c0.32,19.81,9.43,38.22,24.99,50.53
			c6.47,5.12,10.18,12.8,10.18,21.09c0,14.86-12.08,26.94-26.94,26.94H698.13v204.33c0,13.2,10.74,23.94,23.94,23.94
			c7.36,0,14.19-3.3,18.74-9.04c12.87-16.27,32.13-25.8,52.84-26.13c0.37-0.01,0.75-0.01,1.12-0.01c37.14,0,67.89,29.87,68.78,67.1
			c0.45,18.7-6.5,36.37-19.55,49.73c-13.06,13.37-30.53,20.73-49.22,20.73c-21.04,0-40.64-9.44-53.78-25.9
			c-4.71-5.9-11.61-9.29-18.93-9.29c-13.2,0-23.94,10.74-23.94,23.94V1748.62z"/>
	</g>
	<g>
		<path d="M697.63,1751.12H490.79c-14.58,0-26.44-11.86-26.44-26.44c0-8.08,3.73-15.7,10.23-20.88
			c15.86-12.66,24.96-31.55,24.96-51.83c0-18-7.1-34.85-19.98-47.43c-12.88-12.58-29.9-19.29-47.92-18.84
			c-36.24,0.86-65.24,31.08-64.65,67.36c0.32,19.96,9.5,38.51,25.18,50.92c6.35,5.02,9.99,12.57,9.99,20.69
			c0,14.58-11.86,26.44-26.44,26.44H168.88v-206.83c0-13.48-10.96-24.44-24.44-24.44c-7.52,0-14.49,3.37-19.13,9.23
			c-12.78,16.16-31.89,25.61-52.45,25.94c-0.37,0.01-0.74,0.01-1.11,0.01c-36.88,0-67.4-29.65-68.28-66.62
			c-0.44-18.57,6.45-36.1,19.4-49.37c12.96-13.27,30.31-20.58,48.86-20.58c20.89,0,40.35,9.37,53.39,25.71
			c4.8,6.02,11.85,9.47,19.32,9.47c13.48,0,24.44-10.96,24.44-24.44v-206.83h206.83c14.58,0,26.44,11.86,26.44,26.44
			c0,8.08-3.73,15.7-10.23,20.88c-15.86,12.66-24.96,31.55-24.96,51.83c0,18,7.1,34.85,19.98,47.43
			c12.88,12.58,29.9,19.29,47.92,18.84c36.24-0.86,65.24-31.08,64.65-67.36c-0.32-19.96-9.5-38.51-25.18-50.92
			c-6.35-5.02-9.99-12.56-9.99-20.69c0-14.58,11.86-26.44,26.44-26.44h206.83v206.83c0,13.48,10.96,24.44,24.44,24.44
			c7.52,0,14.49-3.37,19.13-9.23c12.78-16.16,31.9-25.61,52.45-25.94c37.36-0.58,68.5,29.27,69.39,66.61
			c0.44,18.57-6.45,36.1-19.4,49.37c-12.96,13.27-30.31,20.58-48.86,20.58c-20.89,0-40.35-9.37-53.39-25.71
			c-4.8-6.02-11.85-9.47-19.32-9.47c-13.48,0-24.44,10.96-24.44,24.44V1751.12z M433.27,1583.69c17.94,0,34.82,6.86,47.69,19.42
			c13.27,12.96,20.58,30.31,20.58,48.86c0,20.89-9.37,40.35-25.71,53.39c-6.02,4.81-9.47,11.85-9.47,19.32
			c0,13.48,10.96,24.44,24.44,24.44h204.83v-204.83c0-14.58,11.86-26.44,26.44-26.44c8.08,0,15.7,3.73,20.88,10.23
			c12.66,15.86,31.55,24.96,51.83,24.96c18,0,34.85-7.1,47.43-19.98c12.58-12.88,19.27-29.9,18.84-47.92
			c-0.86-36.24-31.05-65.22-67.36-64.65c-19.96,0.32-38.51,9.5-50.92,25.18c-5.02,6.35-12.56,9.99-20.69,9.99
			c-14.58,0-26.44-11.86-26.44-26.44v-204.83H490.79c-13.48,0-24.44,10.96-24.44,24.44c0,7.52,3.37,14.49,9.23,19.13
			c16.15,12.78,25.61,31.9,25.94,52.45c0.6,37.37-29.27,68.5-66.61,69.39c-18.58,0.41-36.1-6.45-49.37-19.4
			c-13.27-12.96-20.58-30.31-20.58-48.86c0-20.89,9.37-40.35,25.71-53.39c6.02-4.81,9.47-11.85,9.47-19.32
			c0-13.48-10.96-24.44-24.44-24.44H170.88v204.83c0,14.58-11.86,26.44-26.44,26.44c-8.08,0-15.7-3.73-20.88-10.23
			c-12.66-15.86-31.55-24.96-51.83-24.96c-18,0-34.85,7.1-47.43,19.98c-12.58,12.88-19.27,29.9-18.84,47.92
			c0.86,35.88,30.48,64.66,66.28,64.66c0.36,0,0.72,0,1.08-0.01c19.96-0.32,38.52-9.5,50.92-25.18c5.02-6.35,12.56-9.99,20.69-9.99
			c14.58,0,26.44,11.86,26.44,26.44v204.83h204.83c13.48,0,24.44-10.96,24.44-24.44c0-7.52-3.37-14.49-9.23-19.13
			c-16.15-12.78-25.61-31.89-25.94-52.45c-0.6-37.37,29.27-68.5,66.61-69.39C432.15,1583.7,432.71,1583.69,433.27,1583.69z"/>
	</g>
	<g>
		<path d="M1224.37,2277.87h-206.83c-14.58,0-26.44-11.86-26.44-26.44c0-8.08,3.73-15.7,10.22-20.88
			c15.86-12.66,24.96-31.55,24.96-51.83c0-18-7.1-34.85-19.98-47.43c-12.88-12.58-29.89-19.28-47.93-18.84
			c-36.24,0.86-65.24,31.08-64.65,67.36c0.32,19.96,9.5,38.52,25.18,50.92c6.35,5.02,9.99,12.57,9.99,20.69
			c0,14.58-11.86,26.44-26.44,26.44H695.63v-206.83c0-13.48-10.96-24.44-24.44-24.44c-7.52,0-14.49,3.37-19.13,9.23
			c-12.78,16.15-31.89,25.61-52.45,25.94c-0.37,0.01-0.74,0.01-1.11,0.01c-36.88,0-67.4-29.65-68.28-66.62
			c-0.44-18.57,6.45-36.1,19.4-49.37c12.96-13.27,30.31-20.58,48.86-20.58c20.89,0,40.35,9.37,53.39,25.71
			c4.8,6.02,11.85,9.47,19.32,9.47c13.48,0,24.44-10.96,24.44-24.44v-206.83h206.83c14.58,0,26.44,11.86,26.44,26.44
			c0,8.08-3.73,15.7-10.23,20.88c-15.86,12.66-24.96,31.55-24.96,51.83c0,18,7.1,34.85,19.98,47.43
			c12.88,12.58,29.88,19.3,47.93,18.84c36.24-0.86,65.24-31.08,64.65-67.36c-0.32-19.96-9.5-38.51-25.18-50.92
			c-6.35-5.02-9.99-12.56-9.99-20.69c0-14.58,11.86-26.44,26.44-26.44h206.83v206.83c0,13.48,10.96,24.44,24.44,24.44
			c7.52,0,14.49-3.37,19.13-9.23c12.78-16.16,31.9-25.61,52.45-25.94c37.33-0.59,68.5,29.27,69.39,66.61
			c0.44,18.57-6.45,36.1-19.41,49.37c-12.96,13.27-30.31,20.58-48.86,20.58c-20.89,0-40.35-9.37-53.39-25.71
			c-4.8-6.02-11.85-9.47-19.32-9.47c-13.48,0-24.44,10.96-24.44,24.44V2277.87z M960.02,2110.43c17.94,0,34.82,6.86,47.69,19.42
			c13.27,12.96,20.58,30.31,20.58,48.86c0,20.89-9.37,40.35-25.71,53.39c-6.02,4.8-9.47,11.85-9.47,19.32
			c0,13.48,10.96,24.44,24.44,24.44h204.83v-204.83c0-14.58,11.86-26.44,26.44-26.44c8.09,0,15.7,3.73,20.88,10.23
			c12.66,15.86,31.55,24.96,51.83,24.96c18,0,34.85-7.1,47.43-19.98c12.58-12.88,19.27-29.9,18.84-47.92
			c-0.86-35.87-30.49-64.66-66.28-64.66c-0.36,0-0.72,0-1.08,0.01c-19.96,0.32-38.51,9.5-50.92,25.18
			c-5.02,6.35-12.56,9.99-20.69,9.99c-14.58,0-26.44-11.86-26.44-26.44v-204.83h-204.83c-13.48,0-24.44,10.96-24.44,24.44
			c0,7.52,3.37,14.49,9.23,19.13c16.16,12.78,25.61,31.9,25.94,52.45c0.6,37.37-29.27,68.5-66.61,69.39
			c-18.56,0.43-36.1-6.45-49.37-19.4c-13.27-12.96-20.58-30.31-20.58-48.86c0-20.89,9.37-40.35,25.71-53.39
			c6.02-4.81,9.47-11.85,9.47-19.32c0-13.48-10.96-24.44-24.44-24.44H697.63v204.83c0,14.58-11.86,26.44-26.44,26.44
			c-8.09,0-15.7-3.73-20.88-10.22c-12.66-15.86-31.55-24.96-51.83-24.96c-18,0-34.85,7.1-47.43,19.98
			c-12.58,12.88-19.27,29.9-18.84,47.92c0.86,36.24,31.11,65.22,67.36,64.65c19.96-0.32,38.52-9.5,50.92-25.18
			c5.02-6.35,12.56-9.99,20.69-9.99c14.58,0,26.44,11.86,26.44,26.44v204.83h204.83c13.48,0,24.44-10.96,24.44-24.44
			c0-7.52-3.37-14.49-9.23-19.13c-16.15-12.78-25.61-31.89-25.94-52.45c-0.6-37.37,29.27-68.5,66.61-69.39
			C958.89,2110.44,959.46,2110.43,960.02,2110.43z"/>
	</g>
	<g>
		<path d="M1751.12,697.19h-206.83c-14.58,0-26.44-11.86-26.44-26.44c0-8.08,3.73-15.7,10.22-20.88
			c15.86-12.66,24.96-31.55,24.96-51.83c0-18-7.1-34.85-19.98-47.43c-12.88-12.58-29.91-19.25-47.92-18.84
			c-36.24,0.86-65.24,31.08-64.65,67.36c0.32,19.96,9.5,38.51,25.18,50.92c6.35,5.02,9.99,12.56,9.99,20.69
			c0,14.58-11.86,26.44-26.44,26.44h-206.83l0-206.83c0-13.48-10.96-24.44-24.44-24.44c-7.52,0-14.49,3.37-19.13,9.23
			c-12.78,16.15-31.9,25.61-52.45,25.94c-0.37,0.01-0.74,0.01-1.12,0.01c-36.87,0-67.39-29.65-68.28-66.61
			c-0.44-18.57,6.45-36.1,19.4-49.37c12.96-13.27,30.31-20.58,48.86-20.58c20.89,0,40.35,9.37,53.39,25.71
			c4.8,6.02,11.85,9.47,19.32,9.47c13.48,0,24.44-10.96,24.44-24.44V168.44h206.83c14.58,0,26.44,11.86,26.44,26.44
			c0,8.08-3.73,15.7-10.22,20.88c-15.86,12.66-24.96,31.55-24.96,51.83c0,18,7.1,34.85,19.98,47.43
			c12.88,12.58,29.9,19.25,47.92,18.84c36.24-0.86,65.24-31.08,64.65-67.36c-0.32-19.96-9.5-38.51-25.18-50.92
			c-6.35-5.02-9.99-12.56-9.99-20.69c0-14.58,11.86-26.44,26.44-26.44h206.83v206.83c0,13.48,10.96,24.44,24.44,24.44
			c7.52,0,14.49-3.37,19.13-9.23c12.78-16.15,31.89-25.61,52.45-25.94c37.41-0.57,68.5,29.27,69.39,66.61
			c0.44,18.57-6.45,36.1-19.4,49.37c-12.96,13.27-30.31,20.58-48.86,20.58c-20.89,0-40.35-9.37-53.39-25.71
			c-4.8-6.02-11.85-9.47-19.32-9.47c-13.48,0-24.44,10.96-24.44,24.44V697.19z M1486.76,529.75c17.94,0,34.82,6.86,47.68,19.42
			c13.27,12.96,20.58,30.31,20.58,48.86c0,20.89-9.37,40.35-25.71,53.39c-6.02,4.81-9.47,11.85-9.47,19.32
			c0,13.48,10.96,24.44,24.44,24.44h204.83V490.35c0-14.58,11.86-26.44,26.44-26.44c8.09,0,15.7,3.73,20.88,10.22
			c12.66,15.86,31.55,24.96,51.83,24.96c18,0,34.85-7.1,47.43-19.98c12.58-12.88,19.27-29.9,18.84-47.92
			c-0.86-35.87-30.49-64.66-66.28-64.66c-0.36,0-0.72,0-1.08,0.01c-19.96,0.32-38.52,9.5-50.92,25.18
			c-5.02,6.35-12.56,9.99-20.69,9.99c-14.58,0-26.44-11.86-26.44-26.44V170.44h-204.83c-13.48,0-24.44,10.96-24.44,24.44
			c0,7.52,3.37,14.49,9.23,19.13c16.16,12.78,25.61,31.9,25.94,52.45c0.6,37.37-29.27,68.5-66.61,69.39
			c-18.55,0.46-36.1-6.45-49.37-19.4c-13.27-12.96-20.58-30.31-20.58-48.86c0-20.89,9.37-40.35,25.71-53.39
			c6.02-4.81,9.47-11.85,9.47-19.32c0-13.48-10.96-24.44-24.44-24.44h-204.83v204.83c0,14.58-11.86,26.44-26.44,26.44
			c-8.09,0-15.7-3.73-20.88-10.23c-12.66-15.86-31.55-24.96-51.83-24.96c-18,0-34.85,7.1-47.43,19.98
			c-12.58,12.88-19.27,29.9-18.84,47.92c0.86,35.88,30.49,64.66,66.28,64.66c0.36,0,0.72,0,1.08-0.01
			c19.96-0.32,38.51-9.5,50.92-25.18c5.02-6.35,12.56-9.99,20.69-9.99c14.58,0,26.44,11.86,26.44,26.44l0,204.83h204.83
			c13.48,0,24.44-10.96,24.44-24.44c0-7.52-3.37-14.49-9.23-19.13c-16.16-12.78-25.61-31.9-25.94-52.45
			c-0.6-37.37,29.27-68.5,66.61-69.39C1485.64,529.76,1486.2,529.75,1486.76,529.75z"/>
	</g>
	<g>
		<path d="M1224.37,170.44h-206.83c-14.58,0-26.44-11.86-26.44-26.44c0-8.08,3.73-15.7,10.22-20.88
			c15.86-12.66,24.96-31.55,24.96-51.83c0-18-7.1-34.85-19.98-47.43C993.42,11.29,976.39,4.6,958.38,5.03
			c-36.24,0.86-65.24,31.08-64.65,67.36c0.32,19.96,9.5,38.51,25.18,50.92c6.35,5.02,9.99,12.56,9.99,20.69
			c0,14.58-11.86,26.44-26.44,26.44H695.63V-36.39c0-13.48-10.96-24.44-24.44-24.44c-7.52,0-14.49,3.37-19.13,9.23
			c-12.78,16.15-31.9,25.61-52.45,25.94c-37.35,0.58-68.5-29.27-69.39-66.61c-0.44-18.57,6.45-36.1,19.4-49.37
			c12.96-13.27,30.31-20.58,48.86-20.58c20.89,0,40.35,9.37,53.39,25.71c4.8,6.02,11.85,9.47,19.32,9.47
			c13.48,0,24.44-10.96,24.44-24.44V-358.3h206.83c14.58,0,26.44,11.86,26.44,26.44c0,8.08-3.73,15.7-10.23,20.88
			c-15.86,12.66-24.96,31.55-24.96,51.83c0,18,7.1,34.85,19.98,47.43c12.88,12.58,29.9,19.24,47.92,18.84
			c36.24-0.86,65.24-31.08,64.65-67.36c-0.32-19.96-9.5-38.52-25.18-50.92c-6.35-5.02-9.99-12.56-9.99-20.69
			c0-14.58,11.86-26.44,26.44-26.44h206.83v206.83c0,13.48,10.96,24.44,24.44,24.44c7.52,0,14.49-3.37,19.13-9.23
			c12.78-16.15,31.9-25.61,52.45-25.94c0.37-0.01,0.74-0.01,1.11-0.01c36.87,0,67.39,29.66,68.28,66.61
			c0.44,18.57-6.45,36.1-19.4,49.37c-12.96,13.27-30.31,20.58-48.86,20.58c-20.89,0-40.35-9.37-53.39-25.71
			c-4.8-6.02-11.85-9.47-19.32-9.47c-13.48,0-24.44,10.96-24.44,24.44L1224.37,170.44z M960.02,3.01c17.94,0,34.82,6.86,47.69,19.42
			c13.27,12.96,20.58,30.31,20.58,48.86c0,20.89-9.37,40.35-25.71,53.39c-6.02,4.81-9.47,11.85-9.47,19.32
			c0,13.48,10.96,24.44,24.44,24.44h204.83l0-204.83c0-14.58,11.86-26.44,26.44-26.44c8.09,0,15.7,3.73,20.88,10.22
			c12.66,15.86,31.55,24.96,51.83,24.96c18,0,34.85-7.1,47.43-19.98c12.58-12.88,19.27-29.9,18.83-47.92
			c-0.86-35.87-30.49-64.66-66.28-64.66c-0.36,0-0.72,0-1.08,0.01c-19.96,0.32-38.51,9.5-50.92,25.18
			c-5.02,6.35-12.56,9.99-20.69,9.99c-14.58,0-26.44-11.86-26.44-26.44V-356.3h-204.83c-13.48,0-24.44,10.96-24.44,24.44
			c0,7.52,3.37,14.49,9.23,19.13c16.16,12.78,25.61,31.89,25.94,52.45c0.6,37.37-29.27,68.5-66.61,69.39
			c-18.56,0.45-36.1-6.45-49.37-19.4c-13.27-12.96-20.58-30.31-20.58-48.86c0-20.89,9.37-40.35,25.71-53.39
			c6.02-4.81,9.47-11.85,9.47-19.32c0-13.48-10.96-24.44-24.44-24.44H697.63v204.83c0,14.58-11.86,26.44-26.44,26.44
			c-8.08,0-15.7-3.73-20.88-10.23c-12.66-15.86-31.55-24.96-51.83-24.96c-18,0-34.85,7.1-47.43,19.98
			c-12.58,12.88-19.27,29.9-18.84,47.92c0.86,35.88,30.49,64.66,66.28,64.66c0.36,0,0.72,0,1.08-0.01
			c19.96-0.32,38.51-9.5,50.92-25.18c5.02-6.35,12.56-9.99,20.69-9.99c14.58,0,26.44,11.86,26.44,26.44v204.83h204.83
			c13.48,0,24.44-10.96,24.44-24.44c0-7.52-3.37-14.49-9.23-19.13c-16.15-12.78-25.61-31.9-25.94-52.45
			c-0.6-37.37,29.27-68.5,66.61-69.39C958.89,3.02,959.46,3.01,960.02,3.01z"/>
	</g>
	<g>
		<path d="M1752.96,1224.37h-1v-206.83c0-13.48-10.96-24.44-24.44-24.44c-7.52,0-14.49,3.37-19.13,9.23
			c-12.78,16.16-31.9,25.61-52.45,25.94c-0.37,0.01-0.74,0.01-1.12,0.01c-36.87,0-67.39-29.65-68.28-66.62
			c-0.44-18.57,6.45-36.1,19.4-49.37c12.96-13.27,30.31-20.58,48.86-20.58c20.89,0,40.35,9.37,53.39,25.71
			c4.8,6.02,11.85,9.47,19.32,9.47c13.48,0,24.44-10.96,24.44-24.44V695.63h206.83c14.58,0,26.44,11.86,26.44,26.44
			c0,8.08-3.73,15.7-10.22,20.88c-15.86,12.66-24.96,31.55-24.96,51.83c0,18,7.1,34.85,19.98,47.43
			c12.88,12.58,29.9,19.25,47.92,18.84c36.24-0.86,65.24-31.08,64.65-67.36c-0.32-19.96-9.5-38.51-25.18-50.92
			c-6.35-5.02-9.99-12.56-9.99-20.69c0-14.58,11.86-26.44,26.44-26.44h206.83l0,206.83c0,13.48,10.96,24.44,24.44,24.44
			c7.52,0,14.49-3.37,19.13-9.23c12.78-16.15,31.89-25.61,52.45-25.94c37.38-0.59,68.5,29.27,69.39,66.61
			c0.44,18.57-6.45,36.1-19.4,49.37c-12.96,13.27-30.31,20.58-48.86,20.58c-20.89,0-40.35-9.37-53.39-25.71
			c-4.8-6.02-11.85-9.47-19.32-9.47c-13.48,0-24.44,10.96-24.44,24.44v206.83h-206.83c-14.58,0-26.44-11.86-26.44-26.44
			c0-8.08,3.73-15.7,10.22-20.88c15.86-12.66,24.96-31.55,24.96-51.83c0-18-7.1-34.85-19.98-47.43
			c-12.88-12.58-29.89-19.29-47.92-18.84c-36.24,0.87-65.24,31.08-64.65,67.36c0.32,19.96,9.5,38.51,25.18,50.92
			c6.35,5.02,9.99,12.56,9.99,20.69c0,14.58-11.86,26.44-26.44,26.44L1752.96,1224.37z M1727.52,991.1
			c14.58,0,26.44,11.86,26.44,26.44v204.83l204.83,0c13.48,0,24.44-10.96,24.44-24.44c0-7.52-3.37-14.49-9.23-19.13
			c-16.16-12.78-25.61-31.9-25.94-52.45c-0.6-37.37,29.27-68.5,66.61-69.39c18.57-0.43,36.1,6.45,49.37,19.41
			c13.27,12.96,20.58,30.31,20.58,48.86c0,20.89-9.37,40.35-25.71,53.39c-6.02,4.8-9.47,11.85-9.47,19.32
			c0,13.48,10.96,24.44,24.44,24.44h204.83v-204.83c0-14.58,11.86-26.44,26.44-26.44c8.08,0,15.7,3.73,20.88,10.22
			c12.66,15.86,31.55,24.96,51.83,24.96c18,0,34.85-7.1,47.43-19.98c12.58-12.88,19.27-29.9,18.83-47.92
			c-0.86-35.87-30.49-64.66-66.28-64.66c-0.36,0-0.72,0-1.08,0.01c-19.96,0.32-38.52,9.5-50.92,25.18
			c-5.02,6.35-12.56,9.99-20.69,9.99c-14.58,0-26.44-11.86-26.44-26.44l0-204.83h-204.83c-13.48,0-24.44,10.96-24.44,24.44
			c0,7.52,3.37,14.49,9.23,19.13c16.16,12.78,25.61,31.9,25.94,52.45c0.6,37.37-29.27,68.5-66.61,69.39
			c-18.57,0.44-36.1-6.45-49.37-19.4c-13.27-12.96-20.58-30.31-20.58-48.86c0-20.89,9.37-40.35,25.71-53.39
			c6.02-4.81,9.47-11.85,9.47-19.32c0-13.48-10.96-24.44-24.44-24.44h-204.83v204.83c0,14.58-11.86,26.44-26.44,26.44
			c-8.09,0-15.7-3.73-20.88-10.22c-12.66-15.86-31.55-24.96-51.83-24.96c-18,0-34.85,7.1-47.43,19.98
			c-12.58,12.88-19.27,29.9-18.84,47.92c0.86,35.87,30.49,64.66,66.28,64.66c0.36,0,0.72,0,1.08-0.01
			c19.96-0.32,38.51-9.5,50.92-25.18C1711.85,994.74,1719.39,991.1,1727.52,991.1z"/>
	</g>
	<g>
		<path d="M-358.53,1224.37h-1v-206.83c0-13.48-10.96-24.44-24.44-24.44c-7.52,0-14.49,3.37-19.13,9.23
			c-12.78,16.16-31.89,25.61-52.45,25.94c-37.36,0.59-68.5-29.27-69.39-66.61c-0.44-18.57,6.45-36.1,19.4-49.37
			c12.96-13.27,30.31-20.58,48.86-20.58c20.89,0,40.35,9.37,53.39,25.71c4.8,6.02,11.85,9.47,19.32,9.47
			c13.48,0,24.44-10.96,24.44-24.44l0-206.83h206.83c14.58,0,26.44,11.86,26.44,26.44c0,8.08-3.73,15.7-10.22,20.88
			c-15.86,12.66-24.96,31.55-24.96,51.83c0,18,7.1,34.85,19.98,47.43c12.88,12.58,29.9,19.25,47.92,18.84
			c36.24-0.86,65.24-31.08,64.65-67.36c-0.32-19.96-9.5-38.52-25.18-50.92c-6.35-5.02-9.99-12.56-9.99-20.69
			c0-14.58,11.86-26.44,26.44-26.44h206.83v206.83c0,13.48,10.96,24.44,24.44,24.44c7.52,0,14.49-3.37,19.13-9.23
			c12.78-16.15,31.9-25.61,52.45-25.94c37.33-0.59,68.5,29.28,69.39,66.61c0.44,18.57-6.45,36.1-19.4,49.37
			c-12.96,13.27-30.31,20.58-48.86,20.58c-20.89,0-40.35-9.37-53.39-25.71c-4.81-6.02-11.85-9.47-19.32-9.47
			c-13.48,0-24.44,10.96-24.44,24.44l0,206.83H-37.62c-14.58,0-26.44-11.86-26.44-26.44c0-8.09,3.73-15.7,10.22-20.88
			c15.86-12.66,24.96-31.55,24.96-51.83c0-18-7.1-34.85-19.98-47.43c-12.88-12.58-29.89-19.29-47.92-18.84
			c-36.24,0.87-65.24,31.08-64.65,67.36c0.32,19.96,9.5,38.52,25.18,50.92c6.35,5.02,9.99,12.56,9.99,20.69
			c0,14.58-11.86,26.44-26.44,26.44L-358.53,1224.37z M-383.97,991.1c14.58,0,26.44,11.86,26.44,26.44v204.83l204.83,0
			c13.48,0,24.44-10.96,24.44-24.44c0-7.52-3.37-14.49-9.23-19.13c-16.15-12.78-25.61-31.89-25.94-52.45
			c-0.6-37.37,29.27-68.5,66.61-69.39c18.56-0.43,36.1,6.45,49.37,19.4c13.27,12.96,20.58,30.31,20.58,48.86
			c0,20.89-9.37,40.35-25.71,53.39c-6.02,4.8-9.47,11.85-9.47,19.32c0,13.48,10.96,24.44,24.44,24.44h204.83l0-204.83
			c0-14.58,11.86-26.44,26.44-26.44c8.08,0,15.7,3.73,20.88,10.22c12.66,15.86,31.55,24.96,51.83,24.96c18,0,34.85-7.1,47.43-19.98
			c12.58-12.88,19.27-29.9,18.84-47.92c-0.86-36.24-31.12-65.25-67.36-64.65c-19.96,0.32-38.51,9.5-50.92,25.18
			c-5.02,6.35-12.56,9.99-20.69,9.99c-14.58,0-26.44-11.86-26.44-26.44V697.63H-37.62c-13.48,0-24.44,10.96-24.44,24.44
			c0,7.52,3.37,14.49,9.23,19.13c16.15,12.78,25.61,31.89,25.94,52.45c0.6,37.37-29.27,68.5-66.61,69.39
			c-18.55,0.46-36.1-6.45-49.37-19.4c-13.27-12.96-20.58-30.31-20.58-48.86c0-20.89,9.37-40.35,25.71-53.39
			c6.02-4.8,9.47-11.85,9.47-19.32c0-13.48-10.96-24.44-24.44-24.44h-204.83l0,204.83c0,14.58-11.86,26.44-26.44,26.44
			c-8.08,0-15.7-3.73-20.88-10.22c-12.66-15.86-31.55-24.96-51.83-24.96c-18,0-34.85,7.1-47.43,19.98
			c-12.58,12.88-19.27,29.9-18.84,47.92c0.86,36.24,31.08,65.26,67.36,64.65c19.96-0.32,38.51-9.5,50.92-25.18
			C-399.64,994.74-392.1,991.1-383.97,991.1z"/>
	</g>
	<g>
		<path d="M697.63,697.19H490.79c-14.58,0-26.44-11.86-26.44-26.44c0-8.08,3.73-15.7,10.23-20.88
			c15.86-12.66,24.96-31.55,24.96-51.83c0-18-7.1-34.85-19.98-47.43c-12.88-12.58-29.9-19.26-47.92-18.84
			c-36.24,0.86-65.24,31.08-64.65,67.36c0.32,19.96,9.5,38.51,25.18,50.92c6.35,5.02,9.99,12.56,9.99,20.69
			c0,14.58-11.86,26.44-26.44,26.44H168.88V490.35c0-13.48-10.96-24.44-24.44-24.44c-7.52,0-14.49,3.37-19.13,9.23
			c-12.78,16.15-31.89,25.61-52.45,25.94c-37.33,0.61-68.5-29.27-69.39-66.61c-0.44-18.57,6.45-36.1,19.4-49.37
			c12.96-13.27,30.31-20.58,48.86-20.58c20.89,0,40.35,9.37,53.39,25.71c4.8,6.02,11.85,9.47,19.32,9.47
			c13.48,0,24.44-10.96,24.44-24.44V168.44h206.83c14.58,0,26.44,11.86,26.44,26.44c0,8.08-3.73,15.7-10.23,20.88
			c-15.86,12.66-24.96,31.55-24.96,51.83c0,18,7.1,34.85,19.98,47.43c12.88,12.58,29.89,19.25,47.92,18.84
			c36.24-0.86,65.24-31.08,64.65-67.36c-0.32-19.96-9.5-38.51-25.18-50.92c-6.35-5.02-9.99-12.56-9.99-20.69
			c0-14.58,11.86-26.44,26.44-26.44h206.83v206.83c0,13.48,10.96,24.44,24.44,24.44c7.52,0,14.49-3.37,19.13-9.23
			c12.78-16.15,31.89-25.61,52.45-25.94c37.36-0.58,68.5,29.27,69.39,66.61c0.44,18.57-6.45,36.1-19.4,49.37
			c-12.96,13.27-30.31,20.58-48.86,20.58c-20.89,0-40.35-9.37-53.39-25.71c-4.8-6.02-11.85-9.47-19.32-9.47
			c-13.48,0-24.44,10.96-24.44,24.44V697.19z M433.27,529.75c17.94,0,34.82,6.86,47.69,19.42c13.27,12.96,20.58,30.31,20.58,48.86
			c0,20.89-9.37,40.35-25.71,53.39c-6.02,4.81-9.47,11.85-9.47,19.32c0,13.48,10.96,24.44,24.44,24.44h204.83V490.35
			c0-14.58,11.86-26.44,26.44-26.44c8.08,0,15.7,3.73,20.88,10.22c12.66,15.86,31.55,24.96,51.83,24.96c18,0,34.85-7.1,47.43-19.98
			c12.58-12.88,19.27-29.9,18.84-47.92c-0.86-36.24-31.05-65.24-67.36-64.65c-19.96,0.32-38.52,9.5-50.92,25.18
			c-5.02,6.35-12.56,9.99-20.69,9.99c-14.58,0-26.44-11.86-26.44-26.44V170.44H490.79c-13.48,0-24.44,10.96-24.44,24.44
			c0,7.52,3.37,14.49,9.23,19.13c16.15,12.78,25.61,31.9,25.94,52.45c0.6,37.37-29.27,68.5-66.61,69.39
			c-18.57,0.44-36.1-6.45-49.37-19.4c-13.27-12.96-20.58-30.31-20.58-48.86c0-20.89,9.37-40.35,25.71-53.39
			c6.02-4.8,9.47-11.85,9.47-19.32c0-13.48-10.96-24.44-24.44-24.44H170.88v204.83c0,14.58-11.86,26.44-26.44,26.44
			c-8.08,0-15.7-3.73-20.88-10.23c-12.66-15.86-31.55-24.96-51.83-24.96c-18,0-34.85,7.1-47.43,19.98
			c-12.58,12.88-19.27,29.9-18.84,47.92c0.86,36.24,31.05,65.25,67.36,64.65c19.96-0.32,38.52-9.5,50.92-25.18
			c5.02-6.35,12.56-9.99,20.69-9.99c14.58,0,26.44,11.86,26.44,26.44v204.83h204.83c13.48,0,24.44-10.96,24.44-24.44
			c0-7.52-3.37-14.49-9.23-19.13c-16.15-12.78-25.61-31.9-25.94-52.45c-0.6-37.37,29.27-68.5,66.61-69.39
			C432.15,529.76,432.71,529.75,433.27,529.75z"/>
	</g>
	<g>
		<path d="M959.98,863.12c-18.07,0-35.07-6.91-48.03-19.57c-13.37-13.05-20.73-30.53-20.73-49.22c0-21.04,9.44-40.64,25.9-53.78
			c5.9-4.71,9.28-11.61,9.28-18.93c0-13.2-10.74-23.94-23.94-23.94H695.13V490.35c0-14.85,12.08-26.94,26.94-26.94
			c8.24,0,15.99,3.8,21.27,10.41c12.57,15.74,31.31,24.77,51.44,24.77c17.87,0,34.59-7.04,47.07-19.83
			c12.48-12.78,19.12-29.67,18.69-47.56c-0.86-35.96-30.85-64.75-66.85-64.17c-19.81,0.32-38.22,9.43-50.53,24.99
			c-5.12,6.47-12.8,10.18-21.09,10.18c-14.86,0-26.94-12.08-26.94-26.94V167.94h207.33c13.2,0,23.94-10.74,23.94-23.94
			c0-7.36-3.3-14.19-9.04-18.74c-16.27-12.87-25.8-32.13-26.13-52.84c-0.61-37.65,29.49-69,67.09-69.9
			c18.69-0.46,36.36,6.49,49.73,19.55c13.37,13.06,20.73,30.53,20.73,49.22c0,21.04-9.44,40.64-25.9,53.78
			c-5.9,4.71-9.28,11.61-9.28,18.93c0,13.2,10.74,23.94,23.94,23.94h207.33v207.33c0,14.85-12.08,26.94-26.94,26.94
			c-8.24,0-15.99-3.8-21.27-10.41c-12.57-15.74-31.31-24.77-51.44-24.77c-17.87,0-34.58,7.04-47.07,19.83
			c-12.48,12.78-19.12,29.67-18.69,47.56c0.86,35.96,30.85,64.79,66.85,64.17c19.81-0.32,38.22-9.43,50.53-24.99
			c5.12-6.47,12.8-10.18,21.09-10.18c14.86,0,26.94,12.08,26.94,26.94v207.33h-207.33c-13.2,0-23.94,10.74-23.94,23.94
			c0,7.36,3.3,14.19,9.04,18.74c16.27,12.87,25.8,32.13,26.13,52.84c0.61,37.65-29.49,69-67.09,69.9
			C961.11,863.11,960.55,863.12,959.98,863.12z M698.13,694.69h204.33c14.85,0,26.94,12.08,26.94,26.94
			c0,8.24-3.8,15.99-10.41,21.27c-15.74,12.57-24.77,31.31-24.77,51.44c0,17.87,7.04,34.59,19.83,47.07
			c12.78,12.48,29.7,19.11,47.56,18.69c35.96-0.86,64.75-30.85,64.17-66.85c-0.32-19.81-9.43-38.22-24.99-50.53
			c-6.47-5.12-10.18-12.8-10.18-21.09c0-14.86,12.08-26.94,26.94-26.94h204.33V490.35c0-13.2-10.74-23.94-23.94-23.94
			c-7.37,0-14.19,3.3-18.74,9.04c-12.87,16.27-32.13,25.8-52.84,26.13c-0.38,0.01-0.75,0.01-1.12,0.01
			c-37.14,0-67.89-29.87-68.78-67.1c-0.45-18.7,6.5-36.36,19.55-49.73c13.05-13.37,30.53-20.73,49.22-20.73
			c21.04,0,40.64,9.44,53.78,25.9c4.71,5.9,11.61,9.28,18.93,9.28c13.2,0,23.94-10.74,23.94-23.94V170.94h-204.33
			c-14.85,0-26.94-12.08-26.94-26.94c0-8.24,3.79-15.99,10.41-21.27c15.74-12.56,24.77-31.31,24.77-51.44
			c0-17.87-7.04-34.59-19.83-47.07C993.17,11.74,976.3,5.11,958.39,5.53c-35.96,0.86-64.75,30.85-64.17,66.85
			c0.32,19.81,9.43,38.22,24.99,50.53c6.47,5.12,10.18,12.8,10.18,21.09c0,14.86-12.08,26.94-26.94,26.94H698.13v204.33
			c0,13.2,10.74,23.94,23.94,23.94c7.36,0,14.19-3.3,18.74-9.04c12.87-16.27,32.13-25.8,52.84-26.13c37.65-0.63,69,29.49,69.9,67.09
			c0.45,18.7-6.5,36.36-19.55,49.73c-13.05,13.37-30.53,20.73-49.22,20.73c-21.04,0-40.64-9.44-53.78-25.9
			c-4.71-5.9-11.61-9.28-18.93-9.28c-13.2,0-23.94,10.74-23.94,23.94V694.69z"/>
	</g>
	<g>
		<path d="M1223.37,1223.37v-205.83c0-14.05,11.39-25.44,25.44-25.44l0,0c7.86,0,15.2,3.7,20.1,9.85
			c12.33,15.44,31.31,25.34,52.61,25.34c37.71,0,68.17-31.02,67.26-68.93c-0.88-36.73-31.64-66.22-68.37-65.63
			c-20.96,0.34-39.58,10.25-51.69,25.56c-4.81,6.08-12.15,9.61-19.91,9.61h0c-14.05,0-25.44-11.39-25.44-25.44V696.63h-205.83
			c-14.05,0-25.44,11.39-25.44,25.44v0c0,7.76,3.53,15.1,9.61,19.91c15.31,12.11,25.22,30.73,25.56,51.69
			c0.59,36.74-28.9,67.5-65.63,68.37c-37.91,0.9-68.93-29.56-68.93-67.26c0-21.3,9.89-40.28,25.34-52.61
			c6.15-4.9,9.85-12.24,9.85-20.1v0c0-14.05-11.39-25.44-25.44-25.44H696.63v205.83c0,14.05-11.39,25.44-25.44,25.44h0
			c-7.86,0-15.2-3.7-20.1-9.85c-12.33-15.44-31.31-25.34-52.61-25.34c-37.71,0-68.17,31.02-67.26,68.93
			c0.88,36.73,31.64,66.22,68.37,65.63c20.96-0.34,39.58-10.25,51.69-25.56c4.81-6.08,12.15-9.61,19.91-9.61h0
			c14.05,0,25.44,11.39,25.44,25.44v205.83h205.83c14.05,0,25.44-11.39,25.44-25.44v0c0-7.76-3.53-15.1-9.61-19.91
			c-15.31-12.11-25.22-30.73-25.56-51.69c-0.59-36.74,28.9-67.5,65.63-68.37c37.91-0.9,68.93,29.56,68.93,67.26
			c0,21.3-9.89,40.28-25.34,52.61c-6.15,4.9-9.85,12.24-9.85,20.1v0c0,14.05,11.39,25.44,25.44,25.44H1223.37z"/>
		<path d="M1224.87,1224.87h-207.33c-14.85,0-26.94-12.08-26.94-26.94c0-8.24,3.79-15.99,10.41-21.27
			c15.74-12.56,24.77-31.31,24.77-51.44c0-17.87-7.04-34.59-19.83-47.07c-12.78-12.48-29.7-19.15-47.56-18.69
			c-35.96,0.86-64.75,30.85-64.17,66.85c0.32,19.81,9.43,38.22,24.99,50.53c6.47,5.12,10.18,12.8,10.18,21.09
			c0,14.86-12.08,26.94-26.94,26.94H695.13v-207.33c0-13.2-10.74-23.94-23.94-23.94c-7.36,0-14.19,3.3-18.74,9.04
			c-12.87,16.27-32.13,25.8-52.84,26.13c-37.67,0.57-69-29.49-69.9-67.09c-0.45-18.7,6.5-36.36,19.55-49.73
			c13.05-13.37,30.53-20.73,49.22-20.73c21.04,0,40.64,9.44,53.78,25.9c4.71,5.9,11.61,9.28,18.93,9.28
			c13.2,0,23.94-10.74,23.94-23.94V695.13h207.33c14.85,0,26.94,12.08,26.94,26.94c0,8.24-3.8,15.99-10.41,21.27
			c-15.74,12.57-24.77,31.31-24.77,51.44c0,17.87,7.04,34.59,19.83,47.07c12.78,12.48,29.7,19.12,47.56,18.69
			c35.96-0.86,64.75-30.85,64.17-66.85c-0.32-19.81-9.43-38.22-24.99-50.53c-6.47-5.12-10.18-12.8-10.18-21.09
			c0-14.86,12.08-26.94,26.94-26.94h207.33v207.33c0,13.2,10.74,23.94,23.94,23.94c7.37,0,14.19-3.3,18.74-9.04
			c12.87-16.27,32.13-25.8,52.84-26.13c37.66-0.62,69,29.49,69.9,67.09c0.45,18.7-6.5,36.36-19.55,49.73
			c-13.05,13.37-30.53,20.73-49.22,20.73c-21.04,0-40.64-9.44-53.78-25.9c-4.71-5.9-11.61-9.28-18.93-9.28
			c-13.2,0-23.94,10.74-23.94,23.94V1224.87z M960.02,1056.44c18.07,0,35.07,6.91,48.03,19.57c13.37,13.05,20.73,30.53,20.73,49.22
			c0,21.04-9.44,40.64-25.9,53.78c-5.9,4.71-9.28,11.61-9.28,18.93c0,13.2,10.74,23.94,23.94,23.94h204.33v-204.33
			c0-14.85,12.08-26.94,26.94-26.94c8.24,0,15.99,3.79,21.27,10.41c12.57,15.74,31.31,24.77,51.44,24.77
			c17.87,0,34.59-7.04,47.07-19.83c12.48-12.78,19.12-29.67,18.69-47.56c-0.86-35.96-30.84-64.74-66.85-64.17
			c-19.81,0.32-38.22,9.43-50.53,24.99c-5.12,6.47-12.8,10.18-21.09,10.18c-14.86,0-26.94-12.08-26.94-26.94V698.13h-204.33
			c-13.2,0-23.94,10.74-23.94,23.94c0,7.36,3.3,14.19,9.04,18.74c16.27,12.87,25.8,32.13,26.13,52.84
			c0.61,37.65-29.49,69-67.09,69.9c-18.71,0.44-36.36-6.5-49.73-19.55c-13.37-13.05-20.73-30.53-20.73-49.22
			c0-21.04,9.44-40.64,25.9-53.78c5.9-4.71,9.28-11.61,9.28-18.93c0-13.2-10.74-23.94-23.94-23.94H698.13v204.33
			c0,14.85-12.08,26.94-26.94,26.94c-8.24,0-15.99-3.8-21.27-10.41c-12.57-15.74-31.31-24.77-51.44-24.77
			c-17.87,0-34.59,7.04-47.07,19.83c-12.48,12.78-19.12,29.67-18.69,47.56c0.85,35.6,30.25,64.17,65.78,64.17
			c0.36,0,0.71,0,1.07-0.01c19.81-0.32,38.22-9.43,50.53-24.99c5.12-6.47,12.8-10.18,21.09-10.18c14.86,0,26.94,12.08,26.94,26.94
			v204.33h204.33c13.2,0,23.94-10.74,23.94-23.94c0-7.37-3.3-14.19-9.04-18.74c-16.27-12.87-25.8-32.13-26.13-52.84
			c-0.61-37.64,29.49-69,67.09-69.9C958.88,1056.45,959.45,1056.44,960.02,1056.44z"/>
	</g>
	<g>
		<path fill="#FCFCFC" d="M-3303.16-1618.56h-255.41c-17.43,0-31.57,14.13-31.57,31.57v0.01c0,9.62,4.38,18.74,11.93,24.7
			c19,15.02,31.3,38.13,31.72,64.13c0.74,45.59-35.86,83.76-81.44,84.84c-47.04,1.12-85.53-36.68-85.53-83.47
			c0-26.43,12.28-49.98,31.44-65.28c7.63-6.09,12.22-15.19,12.22-24.94v0c0-17.43-14.13-31.57-31.57-31.57h-255.41"/>
		<path d="M-3629.99-1412.78c-22.07,0-42.83-8.44-58.65-23.89c-16.33-15.94-25.32-37.28-25.32-60.1c0-25.69,11.53-49.63,31.63-65.67
			c7.65-6.1,12.03-15.05,12.03-24.55c0-17.13-13.94-31.07-31.07-31.07h-255.41v-1h255.41c17.68,0,32.07,14.39,32.07,32.07
			c0,9.81-4.52,19.04-12.41,25.33c-19.86,15.85-31.25,39.5-31.25,64.89c0,22.54,8.88,43.63,25.02,59.38
			c16.13,15.75,37.42,24.14,60,23.58c45.37-1.08,81.68-38.92,80.95-84.34c-0.4-24.99-11.9-48.22-31.53-63.75
			c-7.7-6.09-12.12-15.24-12.12-25.1c0-17.69,14.39-32.07,32.07-32.07h255.41v1h-255.41c-17.13,0-31.07,13.94-31.07,31.07
			c0,9.56,4.28,18.42,11.74,24.32c19.87,15.72,31.5,39.23,31.91,64.52c0.74,45.97-36.01,84.26-81.93,85.35
			C-3628.61-1412.79-3629.3-1412.78-3629.99-1412.78z"/>
	</g>
	<g>
		<path fill="#FCFCFC" d="M-3303.16-1618.56v255.41c0,17.43,14.13,31.57,31.57,31.57h0.01c9.62,0,18.74-4.38,24.7-11.93
			c15.02-19,38.13-31.3,64.13-31.72c45.59-0.74,83.76,35.86,84.84,81.44c1.12,47.04-36.68,85.53-83.47,85.53
			c-26.43,0-49.98-12.28-65.28-31.44c-6.09-7.63-15.19-12.22-24.94-12.22l0,0c-17.43,0-31.57,14.13-31.57,31.57v255.41"/>
		<path d="M-3302.66-964.94h-1v-255.41c0-17.68,14.38-32.07,32.07-32.07c9.81,0,19.04,4.52,25.33,12.41
			c15.85,19.86,39.5,31.25,64.89,31.25c22.54,0,43.63-8.88,59.38-25.02c15.75-16.13,24.12-37.44,23.58-60
			c-1.07-44.92-38.17-80.96-82.98-80.96c-0.45,0-0.9,0-1.35,0.01c-24.99,0.4-48.22,11.9-63.75,31.53
			c-6.09,7.7-15.24,12.12-25.1,12.12c-17.69,0-32.07-14.39-32.07-32.07v-255.41h1v255.41c0,17.13,13.94,31.07,31.07,31.07
			c9.56,0,18.42-4.28,24.32-11.74c15.72-19.87,39.23-31.5,64.52-31.91c45.93-0.73,84.26,36.01,85.35,81.93
			c0.54,22.84-7.93,44.4-23.87,60.72c-15.94,16.33-37.28,25.32-60.1,25.32c-25.69,0-49.63-11.53-65.67-31.63
			c-6.1-7.65-15.05-12.03-24.55-12.03c-17.13,0-31.07,13.94-31.07,31.07V-964.94z"/>
	</g>
	<g>
		<path fill="#FCFCFC" d="M-3956.78-964.94h255.41c17.43,0,31.57-14.13,31.57-31.57v-0.01c0-9.62-4.38-18.74-11.93-24.7
			c-19-15.02-31.3-38.13-31.72-64.13c-0.74-45.59,35.86-83.76,81.44-84.84c47.04-1.12,85.53,36.68,85.53,83.47
			c0,26.43-12.28,49.98-31.44,65.28c-7.63,6.09-12.22,15.19-12.22,24.94v0c0,17.43,14.13,31.57,31.57,31.57h255.41"/>
		<path d="M-3303.16-964.44h-255.41c-17.68,0-32.07-14.39-32.07-32.07c0-9.81,4.52-19.04,12.41-25.33
			c19.86-15.85,31.25-39.5,31.25-64.89c0-22.54-8.88-43.63-25.02-59.38c-16.13-15.75-37.47-24.14-60-23.58
			c-45.37,1.08-81.68,38.92-80.95,84.34c0.4,24.99,11.9,48.22,31.53,63.75c7.7,6.09,12.12,15.24,12.12,25.1
			c0,17.69-14.38,32.07-32.07,32.07h-255.41v-1h255.41c17.13,0,31.07-13.94,31.07-31.07c0-9.56-4.28-18.42-11.74-24.32
			c-19.87-15.71-31.5-39.23-31.91-64.52c-0.74-45.97,36.01-84.26,81.93-85.35c22.83-0.53,44.4,7.93,60.72,23.87
			c16.33,15.94,25.32,37.28,25.32,60.1c0,25.69-11.53,49.63-31.63,65.67c-7.65,6.1-12.03,15.05-12.03,24.55
			c0,17.13,13.94,31.07,31.07,31.07h255.41V-964.44z"/>
	</g>
	<g>
		<path fill="#FCFCFC" d="M-3956.78-964.94v-255.41c0-17.43-14.13-31.57-31.57-31.57h-0.01c-9.62,0-18.74,4.38-24.7,11.93
			c-15.02,19-38.13,31.3-64.13,31.72c-45.59,0.74-83.76-35.86-84.84-81.44c-1.12-47.04,36.68-85.53,83.47-85.53
			c26.43,0,49.98,12.28,65.28,31.44c6.09,7.63,15.19,12.22,24.94,12.22l0,0c17.43,0,31.57-14.13,31.57-31.57v-255.41"/>
		<path d="M-3956.28-964.94h-1v-255.41c0-17.13-13.94-31.07-31.07-31.07c-9.56,0-18.42,4.28-24.32,11.74
			c-15.72,19.87-39.23,31.5-64.52,31.91c-0.46,0.01-0.91,0.01-1.37,0.01c-45.36,0-82.9-36.48-83.98-81.94
			c-0.54-22.84,7.93-44.4,23.87-60.73c15.94-16.33,37.28-25.32,60.1-25.32c25.69,0,49.63,11.53,65.67,31.63
			c6.1,7.65,15.05,12.03,24.55,12.03c17.13,0,31.07-13.94,31.07-31.07v-255.41h1v255.41c0,17.68-14.39,32.07-32.07,32.07
			c-9.8,0-19.04-4.52-25.33-12.41c-15.85-19.86-39.5-31.25-64.89-31.25c-22.54,0-43.63,8.88-59.38,25.02
			c-15.75,16.13-24.12,37.44-23.58,60c1.08,45.37,38.91,81.7,84.34,80.95c24.99-0.4,48.22-11.9,63.75-31.53
			c6.09-7.7,15.24-12.12,25.1-12.12c17.69,0,32.07,14.39,32.07,32.07V-964.94z"/>
	</g>
	<g>
		<path fill="#FCFCFC" d="M-3945.05-513.19h255.41c17.43,0,31.57-14.13,31.57-31.57v-0.01c0-9.62-4.38-18.74-11.93-24.7
			c-19-15.02-31.3-38.13-31.72-64.13c-0.74-45.59,35.86-83.76,81.44-84.84c47.04-1.12,85.53,36.68,85.53,83.47
			c0,26.43-12.28,49.98-31.44,65.28c-7.63,6.09-12.22,15.19-12.22,24.94v0c0,17.43,14.13,31.57,31.57,31.57h255.41"/>
		<path d="M-3291.43-512.69h-255.41c-17.68,0-32.07-14.39-32.07-32.07c0-9.81,4.52-19.04,12.41-25.33
			c19.86-15.85,31.25-39.5,31.25-64.89c0-22.54-8.88-43.63-25.02-59.38c-16.13-15.75-37.44-24.14-60-23.58
			c-45.37,1.08-81.69,38.92-80.95,84.34c0.4,24.99,11.9,48.22,31.53,63.75c7.7,6.09,12.12,15.24,12.12,25.1
			c0,17.69-14.39,32.07-32.07,32.07h-255.41v-1h255.41c17.13,0,31.07-13.94,31.07-31.07c0-9.56-4.28-18.42-11.74-24.32
			c-19.87-15.71-31.5-39.23-31.91-64.52c-0.74-45.97,36.01-84.26,81.93-85.35c22.84-0.53,44.4,7.93,60.73,23.87
			c16.33,15.94,25.32,37.28,25.32,60.1c0,25.69-11.53,49.63-31.63,65.67c-7.65,6.1-12.03,15.05-12.03,24.55
			c0,17.13,13.94,31.07,31.07,31.07h255.41V-512.69z"/>
	</g>
	<g>
		<path fill="#FCFCFC" d="M-3291.43-513.19v255.41c0,17.43,14.13,31.57,31.57,31.57h0.01c9.62,0,18.74-4.38,24.7-11.93
			c15.02-19,38.13-31.3,64.13-31.72c45.59-0.74,83.76,35.86,84.84,81.44c1.12,47.04-36.68,85.53-83.47,85.53
			c-26.43,0-49.98-12.28-65.28-31.44c-6.09-7.63-15.19-12.22-24.94-12.22l0,0c-17.43,0-31.57,14.13-31.57,31.57v255.41"/>
		<path d="M-3290.93,140.43h-1v-255.41c0-17.68,14.39-32.07,32.07-32.07c9.81,0,19.04,4.52,25.33,12.41
			c15.85,19.86,39.5,31.25,64.89,31.25c22.54,0,43.63-8.88,59.38-25.02c15.75-16.13,24.12-37.44,23.58-60
			c-1.08-45.37-38.95-81.67-84.34-80.95c-24.99,0.4-48.22,11.9-63.75,31.53c-6.09,7.7-15.24,12.12-25.1,12.12
			c-17.69,0-32.07-14.39-32.07-32.07v-255.41h1v255.41c0,17.13,13.94,31.07,31.07,31.07c9.56,0,18.42-4.28,24.32-11.74
			c15.72-19.87,39.23-31.5,64.52-31.91c0.46-0.01,0.92-0.01,1.37-0.01c45.36,0,82.9,36.48,83.98,81.94
			c0.54,22.84-7.93,44.4-23.87,60.73c-15.94,16.33-37.28,25.32-60.1,25.32c-25.69,0-49.63-11.53-65.67-31.63
			c-6.1-7.65-15.05-12.03-24.55-12.03c-17.13,0-31.07,13.94-31.07,31.07V140.43z"/>
	</g>
	<g>
		<path fill="#FCFCFC" d="M-3945.05,140.43h255.41c17.43,0,31.57-14.13,31.57-31.57v-0.01c0-9.62-4.38-18.74-11.93-24.7
			c-19-15.02-31.3-38.13-31.72-64.13c-0.74-45.59,35.86-83.76,81.44-84.84c47.04-1.12,85.53,36.68,85.53,83.47
			c0,26.43-12.28,49.98-31.44,65.28c-7.63,6.09-12.22,15.19-12.22,24.94v0c0,17.43,14.13,31.57,31.57,31.57h255.41"/>
		<path d="M-3291.43,140.93h-255.41c-17.68,0-32.07-14.39-32.07-32.07c0-9.81,4.52-19.04,12.41-25.33
			c19.86-15.85,31.25-39.5,31.25-64.89c0-22.54-8.88-43.63-25.02-59.38c-16.13-15.75-37.44-24.14-60-23.58
			c-45.37,1.08-81.69,38.92-80.95,84.34c0.4,24.99,11.9,48.22,31.53,63.75c7.7,6.09,12.12,15.24,12.12,25.1
			c0,17.69-14.39,32.07-32.07,32.07h-255.41v-1h255.41c17.13,0,31.07-13.94,31.07-31.07c0-9.56-4.28-18.42-11.74-24.32
			c-19.87-15.71-31.5-39.23-31.91-64.52c-0.74-45.97,36.01-84.26,81.93-85.35c22.84-0.52,44.4,7.93,60.73,23.87
			c16.33,15.94,25.32,37.28,25.32,60.1c0,25.69-11.53,49.63-31.63,65.67c-7.65,6.1-12.03,15.05-12.03,24.55
			c0,17.13,13.94,31.07,31.07,31.07h255.41V140.93z"/>
	</g>
	<g>
		<path fill="#FCFCFC" d="M-3945.05,140.43v-255.41c0-17.43-14.13-31.57-31.57-31.57h-0.01c-9.62,0-18.74,4.38-24.7,11.93
			c-15.02,19-38.13,31.3-64.13,31.72c-45.59,0.74-83.76-35.86-84.84-81.44c-1.12-47.04,36.68-85.53,83.47-85.53
			c26.43,0,49.98,12.28,65.28,31.44c6.09,7.63,15.19,12.22,24.94,12.22l0,0c17.43,0,31.57-14.13,31.57-31.57v-255.41"/>
		<path d="M-3944.55,140.43h-1v-255.41c0-17.13-13.94-31.07-31.07-31.07c-9.56,0-18.42,4.28-24.32,11.74
			c-15.71,19.87-39.23,31.5-64.52,31.91c-46.01,0.75-84.26-36.01-85.35-81.93c-0.54-22.84,7.93-44.4,23.87-60.73
			c15.94-16.33,37.28-25.32,60.1-25.32c25.69,0,49.63,11.53,65.67,31.63c6.1,7.65,15.05,12.03,24.55,12.03
			c17.13,0,31.07-13.94,31.07-31.07v-255.41h1v255.41c0,17.68-14.39,32.07-32.07,32.07c-9.81,0-19.04-4.52-25.33-12.41
			c-15.85-19.86-39.5-31.25-64.89-31.25c-22.54,0-43.63,8.88-59.38,25.02c-15.75,16.13-24.12,37.44-23.58,60
			c1.08,45.37,38.93,81.67,84.34,80.95c24.99-0.4,48.22-11.9,63.75-31.53c6.09-7.7,15.24-12.12,25.1-12.12
			c17.69,0,32.07,14.38,32.07,32.07V140.43z"/>
	</g>
	<g>
		<path fill="#FCFCFC" d="M-2976.35,510.74h-255.41c-17.43,0-31.57,14.13-31.57,31.57v0.01c0,9.62,4.38,18.74,11.93,24.7
			c19,15.02,31.3,38.13,31.72,64.13c0.74,45.59-35.86,83.76-81.44,84.84c-47.04,1.12-85.53-36.68-85.53-83.47
			c0-26.43,12.28-49.98,31.44-65.28c7.63-6.09,12.22-15.19,12.22-24.94v0c0-17.43-14.13-31.57-31.57-31.57h-255.41"/>
		<path d="M-3303.18,716.52c-22.07,0-42.83-8.44-58.65-23.89c-16.33-15.94-25.32-37.29-25.32-60.1c0-25.69,11.53-49.63,31.63-65.67
			c7.65-6.1,12.03-15.05,12.03-24.55c0-17.13-13.94-31.07-31.07-31.07h-255.41v-1h255.41c17.68,0,32.07,14.39,32.07,32.07
			c0,9.81-4.52,19.04-12.41,25.33c-19.86,15.85-31.25,39.5-31.25,64.89c0,22.54,8.88,43.63,25.02,59.38
			c16.13,15.75,37.44,24.13,60,23.58c45.37-1.08,81.69-38.92,80.95-84.34c-0.4-24.99-11.9-48.22-31.53-63.75
			c-7.7-6.09-12.12-15.24-12.12-25.1c0-17.69,14.38-32.07,32.07-32.07h255.41v1h-255.41c-17.13,0-31.07,13.94-31.07,31.07
			c0,9.56,4.28,18.42,11.74,24.32c19.87,15.72,31.5,39.23,31.91,64.52c0.74,45.97-36.01,84.26-81.93,85.35
			C-3301.8,716.51-3302.49,716.52-3303.18,716.52z"/>
	</g>
	<g>
		<polyline fill="#FCFCFC" points="-2976.35,510.74 -2976.35,766.15 -2976.35,908.94 -2976.35,1164.36 		"/>
		<rect x="-2976.85" y="510.74" width="1" height="653.62"/>
	</g>
	<g>
		<polyline fill="#FCFCFC" points="-3629.97,1164.36 -3374.55,1164.36 -3231.76,1164.36 -2976.35,1164.36 		"/>
		<rect x="-3629.97" y="1163.86" width="653.62" height="1"/>
	</g>
	<g>
		<path fill="#FCFCFC" d="M-3629.97,1164.36V908.94c0-17.43-14.13-31.57-31.57-31.57h-0.01c-9.62,0-18.74,4.38-24.7,11.93
			c-15.02,19-38.13,31.3-64.13,31.72c-45.59,0.74-83.76-35.86-84.84-81.44c-1.12-47.04,36.68-85.53,83.47-85.53
			c26.43,0,49.98,12.28,65.28,31.44c6.09,7.63,15.19,12.22,24.94,12.22l0,0c17.43,0,31.57-14.13,31.57-31.57V510.74"/>
		<path d="M-3629.47,1164.36h-1V908.94c0-17.13-13.94-31.07-31.07-31.07c-9.56,0-18.42,4.28-24.32,11.74
			c-15.71,19.87-39.23,31.5-64.52,31.91c-0.46,0.01-0.92,0.01-1.37,0.01c-45.36,0-82.9-36.47-83.98-81.94
			c-0.54-22.84,7.93-44.41,23.87-60.73c15.94-16.33,37.28-25.32,60.1-25.32c25.69,0,49.63,11.53,65.67,31.63
			c6.1,7.65,15.05,12.03,24.55,12.03c17.13,0,31.07-13.94,31.07-31.07V510.74h1v255.41c0,17.68-14.39,32.07-32.07,32.07
			c-9.81,0-19.04-4.52-25.33-12.41c-15.85-19.86-39.5-31.25-64.89-31.25c-22.54,0-43.63,8.88-59.38,25.02
			c-15.75,16.13-24.12,37.44-23.58,60c1.08,45.37,38.9,81.73,84.34,80.95c24.99-0.4,48.22-11.9,63.75-31.53
			c6.09-7.7,15.24-12.12,25.1-12.12c17.69,0,32.07,14.38,32.07,32.07V1164.36z"/>
	</g>
</g>
<g id="Layer_2">
	<g>
	</g>
	<g>
		<path fill="#FF0000" d="M1448.13,871.48l97.14-181.47l54.31-101.46l97.14-181.47c0,0-181.47-97.14-181.47-97.14
			c-12.39-6.63-27.8-1.96-34.43,10.42l0,0c-3.66,6.84-4.01,14.98-0.92,22.09c7.78,17.9,7.74,39-1.85,57.63
			c-16.81,32.67-57.33,45.87-90.13,29.31c-33.85-17.09-46.82-58.59-29.03-91.83c10.05-18.78,27.73-30.85,47.16-34.43
			c7.73-1.42,14.46-6.14,18.17-13.07v0c6.63-12.39,1.96-27.8-10.42-34.43l-181.47-97.14c0,0-97.14,181.47-97.14,181.47
			c-6.63,12.39-22.05,17.05-34.43,10.42v0c-6.93-3.71-11.65-10.44-13.07-18.17c-3.58-19.43-15.65-37.11-34.43-47.16
			c-33.24-17.79-74.74-4.82-91.83,29.03c-16.56,32.8-3.36,73.32,29.31,90.13c18.63,9.59,39.73,9.64,57.63,1.85
			c7.11-3.09,15.25-2.74,22.09,0.92l0,0c12.39,6.63,17.05,22.05,10.42,34.43L983.73,622.9l181.47,97.14l101.46,54.31L1448.13,871.48
			z"/>
		<path d="M1448.34,872.16l-0.44-0.24L983.06,623.11l0.24-0.44l97.14-181.47c3.14-5.87,3.81-12.62,1.88-19
			c-1.93-6.38-6.23-11.62-12.1-14.76c-6.76-3.62-14.66-3.95-21.66-0.91c-18.75,8.15-39.91,7.47-58.06-1.87
			c-32.99-16.98-46.24-57.71-29.53-90.8c8.31-16.46,22.56-28.57,40.11-34.12c17.56-5.54,36.17-3.81,52.4,4.88
			c18.28,9.79,30.92,27.1,34.68,47.51c1.42,7.73,6.1,14.22,12.82,17.82c12.12,6.49,27.27,1.91,33.76-10.22l97.37-181.91l0.44,0.24
			l181.47,97.14c6.11,3.27,10.58,8.72,12.59,15.35c2.01,6.63,1.31,13.65-1.96,19.76c-3.74,6.99-10.49,11.85-18.52,13.33
			c-20.11,3.7-37.17,16.16-46.81,34.17c-8.56,15.99-10.27,34.33-4.8,51.63c5.46,17.3,17.4,31.33,33.62,39.52
			c32.6,16.46,72.73,3.41,89.46-29.09c9.2-17.88,9.87-38.73,1.84-57.2c-3.17-7.28-2.83-15.49,0.94-22.52
			c6.75-12.62,22.5-17.38,35.11-10.63l181.91,97.37l-0.24,0.44L1448.34,872.16z M984.41,622.7l463.52,248.11l248.11-463.52
			L1515,310.38c-12.12-6.49-27.27-1.91-33.76,10.22c-3.62,6.76-3.95,14.66-0.9,21.66c8.15,18.75,7.47,39.91-1.87,58.06
			c-11.99,23.3-35.84,36.75-60.47,36.76c-10.24,0-20.61-2.32-30.33-7.23c-16.46-8.31-28.57-22.56-34.12-40.11
			c-5.54-17.56-3.81-36.17,4.88-52.4c9.78-18.28,27.1-30.92,47.51-34.68c7.73-1.42,14.22-6.1,17.82-12.82
			c3.14-5.87,3.81-12.62,1.88-19c-1.93-6.38-6.23-11.62-12.1-14.76l-181.03-96.9l-96.9,181.03c-6.75,12.61-22.5,17.38-35.11,10.63
			c-6.99-3.74-11.85-10.49-13.33-18.52c-3.7-20.11-16.16-37.17-34.17-46.81c-15.99-8.56-34.33-10.27-51.63-4.8
			c-17.3,5.46-31.33,17.4-39.52,33.62c-16.46,32.6-3.41,72.73,29.09,89.46c17.88,9.2,38.73,9.87,57.2,1.84
			c7.28-3.17,15.49-2.83,22.53,0.94c6.11,3.27,10.58,8.73,12.59,15.36c2.01,6.63,1.31,13.65-1.96,19.76L984.41,622.7z"/>
	</g>
	<g>
		<path fill="#0066FF" d="M1057.94,1469.89l180.36,99.18c12.31,6.77,16.8,22.24,10.03,34.55l0,0c-3.79,6.89-10.57,11.53-18.32,12.87
			c-19.47,3.36-37.29,15.23-47.55,33.89c-18.17,33.04-5.67,74.68,27.99,92.15c32.61,16.93,73.27,4.19,90.45-28.29
			c9.8-18.53,10.08-39.62,2.5-57.61c-3.01-7.15-2.57-15.28,1.17-22.08l0,0c6.77-12.31,22.24-16.8,34.55-10.03l180.36,99.18
			l99.18-180.36l55.45-100.84l99.18-180.36c0,0-180.36-99.18-180.36-99.18c-12.31-6.77-16.8-22.24-10.03-34.55l0,0
			c3.79-6.89,10.57-11.53,18.32-12.87c19.47-3.36,37.29-15.23,47.55-33.89c18.17-33.04,5.67-74.68-27.99-92.15
			c-32.61-16.93-73.27-4.19-90.45,28.29c-9.8,18.53-10.08,39.62-2.5,57.61c3.01,7.15,2.57,15.28-1.17,22.08l0,0
			c-6.77,12.31-22.24,16.8-34.55,10.03l-180.36-99.18l-99.18,180.36c-6.77,12.31-2.28,27.78,10.03,34.55l0,0
			c6.8,3.74,14.93,4.18,22.08,1.17c17.99-7.58,39.08-7.3,57.61,2.5c32.48,17.18,45.22,57.84,28.29,90.45
			c-17.47,33.66-59.11,46.16-92.15,27.99c-18.66-10.26-30.53-28.08-33.89-47.55c-1.34-7.75-5.98-14.53-12.87-18.32l0,0
			c-12.31-6.77-27.78-2.28-34.55,10.03L1057.94,1469.89z"/>
		<path d="M1241.24,1750.55c-10.49,0-21.11-2.44-31.01-7.58c-16.36-8.5-28.32-22.88-33.66-40.49c-5.35-17.62-3.41-36.21,5.47-52.35
			c9.99-18.17,27.45-30.61,47.9-34.14c7.74-1.33,14.29-5.93,17.96-12.62c3.21-5.84,3.95-12.58,2.1-18.97
			c-1.86-6.4-6.1-11.69-11.93-14.9l-180.8-99.42l0.24-0.44l99.18-180.37c3.34-6.07,8.84-10.48,15.5-12.41
			c6.65-1.93,13.66-1.16,19.73,2.18c6.95,3.82,11.73,10.63,13.12,18.67c3.48,20.15,15.74,37.35,33.64,47.2
			c15.9,8.74,34.21,10.65,51.57,5.39c17.36-5.27,31.52-17.04,39.9-33.17c16.83-32.41,4.23-72.69-28.08-89.78
			c-17.78-9.4-38.62-10.31-57.18-2.49c-7.32,3.09-15.52,2.65-22.51-1.19c-12.54-6.89-17.13-22.7-10.24-35.23l99.42-180.8l0.44,0.24
			l180.37,99.18c12.05,6.62,27.24,2.21,33.87-9.84c3.7-6.72,4.12-14.61,1.15-21.65c-7.94-18.84-7.02-39.99,2.52-58.04
			c17.35-32.8,58.23-45.58,91.13-28.5c16.36,8.5,28.32,22.88,33.66,40.49c5.35,17.62,3.41,36.21-5.47,52.35
			c-9.99,18.17-27.45,30.61-47.9,34.14c-7.74,1.33-14.29,5.93-17.96,12.62c-3.21,5.84-3.96,12.57-2.1,18.97
			c1.86,6.4,6.1,11.69,11.93,14.9l180.8,99.42l-0.24,0.44l-254.05,462l-0.44-0.24l-180.36-99.18c-12.05-6.63-27.25-2.21-33.87,9.84
			c-3.7,6.72-4.11,14.61-1.15,21.65c7.94,18.84,7.02,39.99-2.52,58.04C1289.23,1737.4,1265.6,1750.55,1241.24,1750.55z
			 M1058.62,1469.69l179.93,98.94c12.53,6.89,17.12,22.7,10.23,35.23c-3.82,6.95-10.63,11.73-18.67,13.12
			c-20.15,3.48-37.35,15.74-47.2,33.64c-8.74,15.89-10.65,34.21-5.39,51.57c5.27,17.36,17.04,31.52,33.17,39.9
			c32.41,16.83,72.69,4.23,89.78-28.08c9.4-17.78,10.31-38.62,2.48-57.18c-3.08-7.32-2.65-15.52,1.19-22.51
			c6.89-12.54,22.7-17.13,35.23-10.24l179.93,98.94l253.32-460.69l-179.93-98.94c-6.07-3.34-10.48-8.84-12.41-15.5
			c-1.93-6.65-1.16-13.66,2.18-19.73c3.82-6.95,10.63-11.73,18.67-13.12c20.15-3.48,37.35-15.74,47.2-33.64
			c8.74-15.9,10.65-34.21,5.39-51.57c-5.27-17.36-17.04-31.52-33.17-39.9c-32.41-16.83-72.69-4.23-89.78,28.08
			c-9.4,17.78-10.31,38.62-2.49,57.18c3.08,7.32,2.65,15.52-1.19,22.51c-6.89,12.54-22.7,17.13-35.23,10.24L1311.94,1009
			L1213,1188.93c-6.63,12.05-2.21,27.24,9.84,33.87c6.72,3.7,14.61,4.12,21.65,1.15c18.84-7.94,39.99-7.02,58.04,2.52
			c32.8,17.35,45.58,58.23,28.5,91.13c-8.5,16.36-22.88,28.32-40.49,33.66c-17.62,5.35-36.21,3.4-52.35-5.47
			c-18.17-9.99-30.61-27.45-34.14-47.9c-1.33-7.74-5.93-14.29-12.62-17.96c-5.84-3.21-12.57-3.96-18.97-2.1
			c-6.4,1.86-11.69,6.1-14.9,11.93L1058.62,1469.69z"/>
	</g>
	<g>
		<path fill="#FFD700" d="M161.39,567.67l127.15,161.87l71.08,90.5L486.77,981.9l161.87-127.15c11.05-8.68,12.97-24.67,4.29-35.72
			l0,0c-4.79-6.1-12.1-9.69-19.86-9.72c-19.52-0.06-38.82-8.58-52.03-24.85c-23.16-28.52-18.97-70.93,9.38-94.31
			c29.25-24.13,72.46-19.33,95.76,10.32c13.16,16.75,17.1,37.79,12.57,57.02c-1.8,7.65-0.19,15.71,4.67,21.89h0
			c8.68,11.05,24.67,12.97,35.72,4.29L901,656.52L773.85,494.65c-8.68-11.05-6.76-27.04,4.29-35.72l0,0
			c6.18-4.86,14.24-6.47,21.89-4.67c19.23,4.53,40.27,0.58,57.02-12.57c29.65-23.29,34.45-66.5,10.32-95.76
			c-23.38-28.35-65.79-32.54-94.31-9.38c-16.27,13.21-24.79,32.51-24.85,52.03c-0.03,7.76-3.62,15.07-9.72,19.86l0,0
			c-11.05,8.68-27.04,6.76-35.72-4.29L575.62,242.29L413.75,369.43c-11.05,8.68-12.97,24.67-4.29,35.72l0,0
			c4.79,6.1,12.1,9.69,19.86,9.72c19.52,0.06,38.82,8.58,52.03,24.85c23.16,28.52,18.97,70.93-9.38,94.31
			c-29.25,24.13-72.46,19.33-95.76-10.32c-13.16-16.75-17.1-37.79-12.57-57.02c1.8-7.65,0.19-15.71-4.67-21.89l0,0
			c-8.68-11.05-24.67-12.97-35.72-4.29L161.39,567.67z"/>
		<path d="M486.68,982.6l-0.31-0.39L160.69,567.58l0.39-0.31l161.87-127.15c11.25-8.84,27.59-6.87,36.42,4.38
			c4.9,6.24,6.64,14.37,4.77,22.32c-4.69,19.9-0.14,40.53,12.48,56.6c11.21,14.27,27.31,23.2,45.35,25.14
			c18.03,1.95,35.68-3.34,49.69-14.9c28.17-23.24,32.35-65.23,9.31-93.61c-12.68-15.61-31.5-24.6-51.64-24.67
			c-7.94-0.03-15.32-3.64-20.25-9.91c-8.84-11.25-6.88-27.59,4.37-36.42l162.26-127.46l0.31,0.39l127.15,161.87
			c4.12,5.24,10.02,8.56,16.64,9.36c6.61,0.79,13.14-1.03,18.38-5.15c6.03-4.74,9.51-11.83,9.53-19.47
			c0.07-20.45,9.19-39.55,25.04-52.42c28.8-23.39,71.42-19.15,95.01,9.45c11.73,14.22,17.1,32.14,15.13,50.44
			c-1.98,18.31-11.04,34.65-25.52,46.03c-16.31,12.81-37.24,17.42-57.45,12.67c-7.65-1.8-15.47-0.13-21.47,4.58
			c-10.81,8.5-12.7,24.2-4.21,35.02L901.7,656.61l-0.39,0.31L739.44,784.06c-11.25,8.83-27.59,6.87-36.42-4.38
			c-4.9-6.24-6.64-14.37-4.77-22.32c4.69-19.9,0.14-40.53-12.48-56.6c-11.21-14.27-27.31-23.19-45.35-25.14
			c-18.03-1.95-35.68,3.34-49.69,14.9c-28.17,23.24-32.35,65.23-9.31,93.61c12.68,15.61,31.5,24.6,51.64,24.67
			c7.94,0.03,15.32,3.64,20.25,9.91c8.84,11.25,6.88,27.59-4.37,36.43L486.68,982.6z M162.09,567.75L486.85,981.2l161.48-126.84
			c10.81-8.49,12.7-24.2,4.21-35.02c-4.74-6.03-11.83-9.51-19.47-9.53c-20.45-0.07-39.55-9.19-52.42-25.04
			c-23.39-28.8-19.15-71.42,9.44-95.01c14.22-11.73,32.14-17.1,50.44-15.13c18.31,1.98,34.65,11.04,46.03,25.52
			c12.81,16.31,17.43,37.24,12.67,57.44c-1.8,7.65-0.13,15.47,4.58,21.47c8.49,10.81,24.2,12.7,35.02,4.21L900.3,656.44
			L773.46,494.96c-4.28-5.45-6.18-12.24-5.36-19.12c0.83-6.88,4.28-13.02,9.73-17.3c6.24-4.9,14.37-6.64,22.31-4.77
			c19.9,4.69,40.53,0.14,56.6-12.48c14.27-11.21,23.2-27.31,25.14-45.35c1.95-18.03-3.34-35.68-14.9-49.69
			c-23.24-28.17-65.23-32.35-93.61-9.31c-15.61,12.68-24.6,31.5-24.67,51.64c-0.03,7.94-3.64,15.32-9.91,20.25
			c-5.45,4.28-12.24,6.19-19.12,5.36c-6.88-0.83-13.02-4.28-17.3-9.73L575.54,242.99L414.06,369.83
			c-10.81,8.49-12.7,24.2-4.21,35.02c4.74,6.03,11.83,9.51,19.47,9.53c20.45,0.07,39.55,9.19,52.42,25.04
			c23.39,28.8,19.15,71.42-9.45,95.01c-14.22,11.73-32.14,17.1-50.44,15.12c-18.31-1.98-34.65-11.04-46.03-25.52
			c-12.81-16.31-17.42-37.24-12.67-57.45c1.8-7.65,0.13-15.47-4.58-21.47c-8.49-10.81-24.2-12.7-35.02-4.21L162.09,567.75z"/>
	</g>
	<g>
		<path fill="#00CC00" d="M522.12,1791.09l171.11-114.41c11.68-7.81,27.48-4.67,35.29,7.01h0c4.37,6.54,5.37,14.69,2.99,22.18
			c-5.99,18.83-3.66,40.11,8.18,57.82c20.96,31.34,63.68,39.43,94.69,17.6c30.05-21.15,37.47-63.11,16.55-93.32
			c-11.93-17.23-30.52-27.2-49.98-28.76c-7.73-0.62-14.75-4.76-19.06-11.21l0,0c-7.81-11.68-4.67-27.48,7.01-35.29L960,1498.31
			L845.59,1327.2c-7.81-11.68-23.61-14.82-35.29-7.01l0,0c-6.45,4.31-10.59,11.33-11.21,19.06c-1.56,19.46-11.52,38.05-28.76,49.98
			c-30.21,20.92-72.17,13.5-93.32-16.55c-21.82-31.01-13.74-73.73,17.6-94.69c17.71-11.84,38.98-14.17,57.82-8.18
			c7.49,2.38,15.65,1.38,22.18-2.99l0,0c11.68-7.81,14.82-23.61,7.01-35.29l-114.41-171.11L496.1,1174.84
			c-11.68,7.81-27.48,4.67-35.29-7.01h0c-4.37-6.54-5.37-14.69-2.99-22.18c5.99-18.83,3.66-40.11-8.18-57.82
			c-20.96-31.34-63.68-39.43-94.69-17.6c-30.05,21.15-37.47,63.11-16.55,93.32c11.93,17.23,30.52,27.2,49.98,28.76
			c7.73,0.62,14.75,4.76,19.06,11.21l0,0c7.81,11.68,4.67,27.48-7.01,35.29l-171.11,114.41l114.41,171.11
			c7.81,11.68,23.61,14.82,35.29,7.01l0,0c6.45-4.31,10.59-11.33,11.21-19.06c1.56-19.46,11.52-38.05,28.76-49.98
			c30.21-20.92,72.17-13.5,93.32,16.55c21.82,31.01,13.74,73.73-17.6,94.69c-17.71,11.84-38.98,14.17-57.82,8.18
			c-7.49-2.38-15.65-1.38-22.18,2.99l0,0c-11.68,7.81-14.82,23.61-7.01,35.29L522.12,1791.09z"/>
		<path d="M795.78,1794.1c-4.17,0-8.37-0.39-12.57-1.17c-18.1-3.37-33.71-13.66-43.94-28.96c-11.52-17.24-14.53-38.47-8.24-58.25
			c2.38-7.49,1.31-15.42-2.92-21.75c-3.7-5.54-9.34-9.3-15.87-10.6c-6.53-1.3-13.18,0.03-18.72,3.73l-171.52,114.69l-0.28-0.42
			L407.3,1620.27c-7.95-11.89-4.75-28.03,7.14-35.98c6.59-4.41,14.83-5.52,22.61-3.05c19.49,6.2,40.4,3.24,57.39-8.12
			c15.08-10.08,25.21-25.46,28.53-43.3c3.32-17.83-0.61-35.83-11.06-50.69c-21.02-29.87-62.57-37.24-92.63-16.43
			c-16.53,11.45-26.94,29.53-28.54,49.61c-0.63,7.92-4.8,15-11.43,19.43c-11.9,7.95-28.04,4.75-35.98-7.14l-114.69-171.52l0.42-0.28
			l171.11-114.41c5.54-3.7,9.3-9.34,10.6-15.87s-0.03-13.18-3.73-18.72c-4.26-6.38-11.07-10.38-18.68-10.99
			c-20.38-1.63-38.73-12.19-50.35-28.97c-21.12-30.5-13.64-72.68,16.67-94.01c15.08-10.61,33.35-14.6,51.45-11.23
			c18.1,3.37,33.71,13.66,43.94,28.96c11.53,17.24,14.53,38.47,8.24,58.25c-2.38,7.49-1.31,15.42,2.92,21.75
			c3.7,5.54,9.34,9.3,15.87,10.6c6.54,1.3,13.18-0.03,18.72-3.73l171.52-114.69l0.28,0.42l114.41,171.11
			c7.95,11.89,4.75,28.03-7.14,35.98c-6.6,4.41-14.84,5.52-22.61,3.05c-19.49-6.19-40.4-3.24-57.39,8.12
			c-15.08,10.08-25.21,25.46-28.53,43.29c-3.32,17.83,0.61,35.83,11.06,50.69c21.02,29.87,62.57,37.24,92.63,16.43
			c16.53-11.45,26.94-29.53,28.54-49.61c0.63-7.92,4.8-15,11.43-19.43c5.76-3.85,12.68-5.23,19.47-3.88
			c6.8,1.35,12.66,5.26,16.51,11.02l114.69,171.52l-0.42,0.28l-171.11,114.41c-11.43,7.64-14.51,23.16-6.87,34.59
			c4.27,6.38,11.07,10.38,18.68,10.99c20.38,1.63,38.73,12.19,50.35,28.97c21.12,30.5,13.64,72.68-16.68,94.01
			C823.08,1789.85,809.61,1794.1,795.78,1794.1z M707.32,1671.88c1.7,0,3.4,0.17,5.11,0.5c6.8,1.35,12.66,5.26,16.51,11.02
			c4.41,6.59,5.52,14.84,3.05,22.61c-6.19,19.49-3.23,40.4,8.12,57.39c10.08,15.08,25.46,25.21,43.3,28.54
			c17.83,3.32,35.83-0.61,50.69-11.06c29.87-21.02,37.24-62.57,16.43-92.63c-11.45-16.53-29.53-26.94-49.61-28.54
			c-7.92-0.63-15-4.8-19.43-11.43c-7.95-11.89-4.75-28.04,7.14-35.99l170.69-114.13l-114.13-170.69c-3.7-5.54-9.34-9.3-15.87-10.6
			c-6.54-1.3-13.18,0.03-18.72,3.73c-6.38,4.26-10.38,11.07-10.99,18.68c-1.63,20.38-12.19,38.73-28.97,50.35
			c-30.51,21.12-72.68,13.64-94.01-16.67c-10.61-15.08-14.6-33.35-11.23-51.45c3.37-18.1,13.66-33.71,28.96-43.94
			c17.24-11.52,38.47-14.53,58.24-8.24c7.49,2.38,15.42,1.31,21.76-2.93c11.43-7.64,14.51-23.16,6.87-34.59l-114.13-170.69
			l-170.69,114.14c-5.76,3.85-12.67,5.23-19.47,3.88c-6.8-1.35-12.66-5.26-16.51-11.02c-4.41-6.59-5.52-14.84-3.05-22.61
			c6.2-19.49,3.24-40.4-8.12-57.39c-10.08-15.08-25.46-25.21-43.3-28.54c-17.83-3.32-35.83,0.61-50.69,11.06
			c-29.87,21.02-37.24,62.57-16.43,92.63c11.45,16.53,29.53,26.94,49.61,28.54c7.92,0.63,15,4.8,19.43,11.43
			c3.85,5.76,5.23,12.68,3.88,19.47c-1.35,6.8-5.26,12.66-11.02,16.51l-170.69,114.13l114.13,170.69
			c7.64,11.43,23.16,14.51,34.59,6.87c6.38-4.26,10.38-11.07,10.99-18.68c1.63-20.38,12.19-38.73,28.97-50.35
			c30.51-21.12,72.68-13.64,94.01,16.67c10.61,15.08,14.6,33.35,11.23,51.45c-3.37,18.1-13.66,33.71-28.96,43.95
			c-17.24,11.52-38.47,14.53-58.24,8.24c-7.49-2.38-15.42-1.31-21.76,2.92c-11.43,7.64-14.51,23.16-6.87,34.59l114.13,170.69
			l170.69-114.13C697.27,1673.38,702.24,1671.88,707.32,1671.88z"/>
	</g>
</g>
<g id="Layer_3">
</g>
</svg>
